<svg xmlns="http://www.w3.org/2000/svg" width="835" height="229" viewBox="0 0 835 229"><clipPath id="a"><path d="M0 0h835v229H0z"/></clipPath><g clip-path="url(#a)"><path fill="#0b374f" d="M-111-110H913v512H-111zM44.046 174.632c-6.113 5.567-14.459 13.706-19.826 19.934 9.215.825 21.881.423 31.467.45a1450 1450 0 0 0 35.103-35.917c-9.855-2.949-13.208-4.744-20.302-12.341-2.771 3.142-5.973 6.962-8.873 9.902-9.926-9.287-18.341-19.755-22.268-33.046-18.149-58.528 41.535-105.04 94.463-76.509 7.285 3.927 13.985 8.838 19.484 15.069-6.917 7.659-17.499 17.494-23.436 24.609 5.35 7.438 6.348 9.526 8.648 18.204 5.964-5.831 11.563-12.098 17.38-18.103l25.617-26.113c-13.551-23.282-30.474-37.086-56.91-44.703-6.291-1.812-23.513-4.299-29.799-2.871-3.126.291-6.266.581-9.366 1.084-47.435 7.696-79.514 51.138-75.032 98.789a87.57 87.57 0 0 0 31.692 59.976q.97.805 1.958 1.586m120.48-84.994c7.35 27.046-4.581 48.489-23.6 66.677a927 927 0 0 0-9.418-9.604c-5.086 6.413-10.591 8.938-18.014 11.848 8.293 8.729 18.205 19.95 26.63 28.068 2.715 2.758 5.51 5.536 8.113 8.391 4.826.001 26.761.287 30.08-.361-.208-2.041-16.675-17.946-19.575-21.236 27.349-22.699 37.702-50.186 32.504-85.376-.493-3.341-3.559-16.928-5.87-19.145-6.867 7.119-13.894 13.77-20.85 20.738m451.966-10.015.018 65.709c3.982.002 9.061-.149 12.95.029l-.04-14.236.035-8.729c10.025 8.532 23.566 7.699 32.672-2.031 9.21-9.842 7.628-29.221-3.317-37.163-4.598-3.499-11.54-6.021-17.291-5.1-5.673 1.456-6.645 2.38-11.663 5.36-1.431-1.509.253-3.926-4.281-4.042-2.857-.072-6.186.247-9.083.203m-301.297-.079.297 47.893 13.535.001c.048-7.884-.978-22.564.25-29.462.417-2.342 1.216-4.631 2.961-6.319 1.709-1.652 4.046-2.337 6.391-2.248 1.95.075 3.735.825 5.031 2.304 4.217 4.811 2.455 28.644 2.376 35.743 4.585-.001 9.432-.087 13.992.008l.064-10.714c-.046-6.1-1.37-21.899 2.661-24.67 10.055-6.912 15.048 2.003 14.668 11.197-.358 8.651.276 16.427-.198 24.225l13.715-.139c-.644-11.47 2.941-36.801-6.409-44.843-8.285-7.124-20.973-4.69-28.797 2.884-4.711-6.131-9.572-8.24-17.364-7.333-7.457 2.057-7.266 4.561-10.951 5.746-1.161-2.083.377-4.171-1.159-4.214-3.386-.096-7.771-.06-11.063-.059m-69.334 48.444c15.074-2.735 24.858-13.828 21.935-29.564a23.18 23.18 0 0 0-9.778-15.126c-6.172-4.23-12.704-4.923-19.929-4.534-33.183 4.156-29.816 51.702 7.772 49.224m180.642-.03c32.966-5.259 30.105-51.152-6.292-49.247-33.941 4.204-30.515 51.476 6.292 49.247m293.084-6.654a154 154 0 0 0-5.606-8.365l-.946-.293c-3.833 2.237-6.709 4.293-11.269 4.687-6.334.548-14.133-3.064-14.597-10.154 1.808-1.304 30.193-.616 34.89-.66.235-19.328-7.075-29.435-27.599-27.935-15.48 3.344-23.403 15.968-19.962 31.226a23.67 23.67 0 0 0 10.512 14.856c11.446 7.147 24.153 3.436 34.577-3.362m-178.654-.208c-1.982-2.86-3.739-5.472-6.005-8.12l-.785-.158c-10.72 7.574-20.804 6.868-25.749-6.29 11.68.015 24.099.235 35.719-.006.023-14.445-4.756-28.084-21.832-28.028q-2.565.024-5.129.137c-15.179 2.389-23.383 14.517-20.827 29.469a23.85 23.85 0 0 0 10.071 15.792c10.464 7.266 25.158 5.46 34.537-2.796m134.032 39.403c-.038 4.676-.436 16.164.297 20.151 1.057.535.633.407 2.008.153 1.83-1.947.832-11.231.76-14.221 2.128 3.398 7.419 12.531 10.51 14.444.829.026 1.832.107 2.62-.059.032-5.513.31-14.814-.269-19.976l-.595-.497c-2.022.273-2.489.64-2.569 2.915-.138 3.883.094 8.133.096 12.01-1.871-3.192-7.032-12.918-10.533-14.735-.403-.209-1.788-.195-2.325-.185m-27.665 8.504c-.059-1.473-.323-3.578.288-4.813 3.166-2.005 8.12 2.572 7.459-3.366-1.453-.581-9.144-.263-11.585-.33.005 6.842-.062 13.801.018 20.63l11.804-.035.077-3.11c-2.219.052-6.056.543-7.615-.531-.914-1.284-.664-2.764-.6-4.35 1.866-2.265 5.127.083 7.045-1.263.188-1.688.399-1.422-.212-2.816a437 437 0 0 0-6.679-.016m-224.249 12.376c.036-5.732.333-15.203-.235-20.576-1.062-.483-1.313-.336-2.526-.135-1.283 2.649-.317 10.27-.592 13.923-2.019-3.114-7.756-12.738-10.438-14.04l-2.278-.051c-.056 4.895-.486 15.868.301 20.183 1.02.545.595.425 2.045.002 2.011-2.675.651-9.89.788-14.036 2.268 3.632 7.176 12.176 10.401 14.395zm-115.122-.275c2.334.033 10.007.453 11.746-.447.59-1.193.533-.594.221-1.851-2.073-1.283-5.671-.873-8.211-.796l-.156-5.869c2.365.115 5.031.544 6.999-.632l.628-.908c-1.942-2.378-4.559-1.648-7.428-1.433-.03-1.366-.321-4.118.247-5.09 2.811-.638 6.532.282 7.602-.755-.019-1.925.242-1.286-.783-2.597-1.851-.42-8.565-.183-10.827-.153zm-16.145-11.149c.174-2.549-.19-4.878 1.293-6.349 3.254-.747 3.912 1.006 6.62-.047.556-1.169.626-1.222.371-2.434-1.365-.715-9.694-.451-12.067-.471-.052 4.418-.463 16.256.209 19.962 1.067.622 1.977.404 3.252.328 1.074-1.706.584-6.176.476-8.433 1.946.089 5.515.356 7.321.168l.674-.631-.514-1.814c-1.931-1.06-5.123-.212-7.635-.279m-67.363 3.92c6.292-1.058 11.691-7.09 4.914-12.05-2.3-1.683-7.634-1.286-10.605-1.277l-.091 20.121.652.649c1.541-.175 1.746-.197 2.841-1.276 1.278-2.817-.19-4.382.902-6.423.324.051 1.127.15 1.387.256m567.609 5.659.021-9.561-8.2.026-.039 1.654c2.436 1.36 2.489-.624 4.52 1.093.288 1.763.205 1.992-.388 3.652-5.536 5.151-13.402-4.736-8.948-9.974 2.735-3.216 10.871.705 11.978-2.787-1.236-3.538-5.198-3.025-8.342-3.047-3.453 1.105-6.11 2.528-7.83 5.949a9.32 9.32 0 0 0-.409 7.388 10.39 10.39 0 0 0 5.633 5.975c4.174 1.819 7.831.849 12.004-.368m-50.651 1.527c-.053-2.824.126-19.585-.601-20.378l-3.118-.15c.024 3.494-.218 17.813.205 20.249 1.589.335 1.947.324 3.514.279m8.097-20.622c-.022 2.974-.34 18.179.264 20.317 1.262.149 1.957.321 3.206.032.319-2.485.032-10.657-.005-13.56 1.966 2.911 8.244 13.212 10.781 13.883l2.302-.187c.044-3.807.451-17.018-.214-19.967-1.506-.39-1.715-.434-3.254-.249-.359 2.36-.072 11.474-.038 14.33-2.275-3.724-7-12.113-10.315-14.401-.9-.072-1.828-.162-2.727-.198m-20.167 18.98-.178-9.428-8.006.033-.063 1.504c2.593 1.662 5.499-1.103 4.888 4.943-.921.969-2.125 1.072-3.425 1.11a7.33 7.33 0 0 1-5.186-1.957c-3.802-3.563-1.488-10.938 3.476-11.349 1.717-.142 7.65 2.767 7.612-1.566-1.87-1.8-5.781-2.173-8.267-2.174-6.048 1.88-10.494 6.853-8.208 13.407a10.26 10.26 0 0 0 5.496 5.99c3.842 1.759 7.673 1.124 11.489-.366zm-27.308 2.395c1.131-1 1.295-.771 1.248-2.625-.105-4.099.591-14.839-.111-18.396-1.306-.167-2.096-.255-3.433-.278.013 3.89-.501 18.407.563 20.619zm-227.934-9.166c2.429-1.354 4.855.53 7.361-1.12.277-1.187.305-1.233-.092-2.349-2.578-.325-4.68-.225-7.254-.167.028-1.669-.25-3.912.606-5.031 2.636-.448 6.013.487 7.322-.303.681-1.117.56-.592.379-1.934-1.91-2.057-9.381-1.23-12.391-1.18l-.011 20.551c2.084-.012 11.059.276 12.038-.416.233-1.198.458-1.62-.051-2.643-2.775-.499-5.399.516-7.546-.356-.522-1.713-.388-3.263-.361-5.052m-42.483 8.448c2.207.033 10.095.473 11.623-.399-.208-1.931.106-1.351-.953-2.6-2.017-.642-4.453-.009-6.823-.079l-.207-4.824.617-.939c2.927-.483 5.166.568 6.489-.113.269-1.399.251-1.563-.286-2.883-2.604-1.164-5.397 1.26-6.594-1.462-.469-1.068-.266-2.853.372-3.843 2.799-.475 6.034.663 7.31-.762-.104-1.746.182-1.149-1.001-2.274-2.044-.748-7.862-.371-10.533-.399zm68.776-20.627c-.013 3.29-.549 19.067.678 20.748 2.224-.487 1.753-.066 3.229-1.506.732-2.016.08-5.93.263-8.692a591 591 0 0 0 6.504 10.138l2.825-.171c1.294-2.084-3.084-6.378-4.378-8.75 2.596-1.517 6.428-4.818 4.147-7.961-2.997-4.131-8.961-3.829-13.268-3.806m28.459.058c-.898 2.782-7.413 19.506-7.014 20.57 1.559-.032 2.632.106 3.833-.906.929-2.78-.078-2.387 1.572-4.431a90 90 0 0 1 6.264-.304c4.316 2.503-.563 5.18 6.033 5.669l.564-.361c-1.038-3.366-5.624-18.32-7.538-20.094-1.297-.087-2.404-.164-3.714-.143m-73.291 17.753c-.088-2.084-.082-16.914-.318-17.54-1.495-.174-2.344-.27-3.866-.252q-.06 10.36.056 20.717c4.072-.069 8.261-.199 12.319 0-1.396-4.861-3.559-3.486-8.191-2.925m303.445-99.522c-1.806-.16-4.322-.481-6.05-.258-4.908 1.322-7.345 3-10.878 6.739l-.321-5.656-12.051.097-.022 32.112c-.004 3.729-.271 12.232.023 15.659l13.374.009c.028-5.203-.451-24.127.406-27.815a12.43 12.43 0 0 1 3.196-5.931c3.354-3.407 6.685-3.742 11.082-4.317.401-3.509.767-7.15 1.241-10.639m-133.426 91.867c2.085 3.232 4.779 7.182 6.574 10.497l2.936-.151.674-.751c-.39-3.145-6.329-6.039-3.419-9.286 9.067-10.119-3.216-10.561-10.715-10.433-.041 5.706-.334 14.869.207 20.252.986.599.875.339 2.405.048 2.363-2.49 1.09-6.614 1.338-10.176m-294.304-10.079c-12.63 7.743 4.833 12.017 4.248 16.492-3.034 1.845-4.903.108-8.143-.439-1.08.937-.852 2.379-.128 3.523 1.874 1.193 4.912 1 7.16.931 13.994-6.043-3.578-11.379-3.422-15.896.963-1.035 1.103-1.126 2.45-1.552 1.869.391 3.951 1.42 5.032.787.211-1.324.302-1.476-.077-2.719-2.973-1.153-3.927-1.218-7.12-1.127m216.743.021c-.031 3.896-.411 17.044.158 19.99 1.157.538 1.322.448 2.646.332.563-2.495.255-11.398.252-14.588 1.346 3.036 5.152 13.911 7.292 14.778 2.734-1.916 2.874-7.924 6.09-11.992l.432.13c.143 1.835.159 3.066.121 4.908-.052 2.563-.502 4.471.575 6.532 1.468.593.941.617 2.307.31 1.611-2.923 1.365-18.862-1.706-20.97-2.534.428-6.961 13.076-7.881 15.773-1.583-4.399-3.722-10.788-5.698-14.863-1.596-.615-2.88-.423-4.588-.34m-176.814 20.497c.003-3.812.236-17.252-.262-20.281-1.731-.277-2.191-.289-3.93-.213-.039 5.115-.367 15.357.145 20.044 1.269.686 2.554.481 4.047.45m-127.623-10.093c2.954 3.409 4.176 5.538 6.54 9.371l.644.744c1.772-.033 1.978.281 3.121-.647-.013-3.248-7.349-6.951-3.02-9.954a7.16 7.16 0 0 0 2.68-3.63c.123-7.314-9.104-6.367-13.842-6.199.177 4.587-.602 16.819 1.102 19.913 1.388.714.759.598 2.413.335.442-2.407.347-7.297.362-9.933m423.526 10.107c-.067-3.702.333-17.938-.333-20.344-1.374-.124-2.354-.216-3.755-.184-.036 4.936-.367 15.61.142 20.064 1.254.695 2.465.495 3.946.464m-315.858-20.501c-12.626 8.611 3.646 10.218 4.499 15.994-1.601 2.11-6.506.61-9.056.214-.212 1.354-.401 1.753.206 2.934 2.429 1.799 4.944 1.416 7.895 1.253 13.763-6.3-4.37-11.441-3.82-15.926 2.48-2.265 5.056-.912 7.838.155.416-2.029.512-1.285-.093-3.028-2.04-1.849-4.783-1.609-7.469-1.596m45.044 3.159a10.338 10.338 0 1 0-14.986 14.245 10.338 10.338 0 0 0 14.986-14.245m180.42-3.207.002 20.536c3.184.046 9.467.673 11.657-.831l.501-1.087-.352-.94c-2.635-.83-5.998.508-7.844-.506-.118-1.771-.214-3.304-.204-5.079 2.325-1.201 5.701.614 7.724-1.479-.244-1.725.087-1.149-1.18-2.195-2.291-.077-4.905.704-6.221-.212-.452-1.439-.307-2.765-.276-4.286 1.515-1.257 6.417-.017 8.364-2.108-.211-1.23.032-.82-.813-1.64a915 915 0 0 1-11.358-.173m36.334 19.966c.04-4.184.449-16.224-.257-19.577-1.225-.449-1.486-.382-2.796-.245-1.417 2.17-.614 11.303-.479 14.414-2.324-3.837-6.859-12.039-10.284-14.431-.899-.077-1.823-.17-2.722-.212-.03 4.42-.388 16.525.27 20.169 1.222.738.676.557 2.463.331 1.537-1.644.777-10.643.722-13.644 1.931 2.816 8.367 13.269 10.736 13.886 1.33-.123 1.631.104 2.347-.691m-344.049-19.814a10.299 10.299 0 1 0 3.13 20.358 10.299 10.299 0 0 0-3.13-20.358M59.548 73.375c-4.768 7.433-7.291 11.637-9.56 20.319 4.088 4.149 8.392 8.686 12.673 12.591 3.588-8.391 4.658-11.342 10-18.749-3.232-4.173-9.266-10.156-13.113-14.161m725.393 6.176.225-13.651c-4.35 0-8.898-.07-13.23.043l-.439 13.666-7.007-.023.002 9.952 7.42-.018c-.094 9.086-.718 21.54.465 30.365 1.037 7.731 18.041 10.708 23.727 6.88.651-.359.492-2.879.476-3.64-.022-1.537.094-4.611-.452-5.867-3.101-.502-8.517 1.533-10.11-1.631-2.406-4.781-1.462-20.388-1.43-26.043 3.975-.01 8.259.064 12.206-.05l.066-9.885zm-497.551-1.42c-4.662 1.241-9.973 3.028-12.298 7.667-9.586 19.129 17.29 21.576 21.129 27.772-.017 1.261.058 1.644-1.055 2.505-5.768 4.457-15.252.097-20.56-2.429a314 314 0 0 1-2.21 11c6.638 2.954 11.437 3.85 18.765 3.733 13.553-1.477 18.074-6.875 17.237-20.377-2.594-4.359-2.759-3.878-6.664-6.647-3.866-2.741-16.982-5.186-16.152-10.664 4.41-5.7 15.035-1.157 20.322.881q.248-5.361.71-10.709c-7.423-2.333-11.449-3.582-19.224-2.732m182.207-.052c-5.123 1.229-10.158 2.732-12.827 7.569-7.201 13.044 2.928 19.455 14.132 23.049 3.593 1.153 5.946 2.298 7.353 5.812-.05.725.048 1.687-.652 2.041-6.479 3.276-16.116-.078-21.416-3.187-.644 3.832-1.258 7.815-2.098 11.594 6.4 2.347 10.726 3.393 17.63 3.393 10.917-.771 18.51-4.091 18.857-16.511.356-12.805-22.398-13.269-23.647-19.928 1.118-7.73 15.915-2.264 20.315-.219l1-10.701c-7.073-2.571-11.057-3.595-18.647-2.912"/><path fill="#1ba9ea" d="M100.397 54.22c1.147.436 5.117 6.239 6.103 7.835 14.634 23.686 45.91 59.345 16.137 84.113-6.072 5.052-12.659 6.624-20.294 7.351-8.012.013-14.096-1.026-20.932-5.569-11.568-7.686-17.763-24.721-13.367-38.021 6.457-19.535 20.637-38.765 32.353-55.709"/><path fill="#51c5f4" d="M78.813 107.411c.922 1.569.097 15.207 6.217 22.12 6.976 7.882 11.388 9.305 21.453 10.81-2.263 1.097-4.618 2.098-6.924 3.11l-4.848 1.129c-19.095-4.459-25.239-20.562-15.898-37.169"/><path fill="#0b374f" d="M637.852 90.161c2.758-.374 5.441-.617 8.12.327a12.6 12.6 0 0 1 7.13 6.465c3.799 7.933.404 16.045-7.54 19.532-16.357 4.138-23.176-19.276-7.71-26.324"/><path fill="#0b374f" d="M239.6 89.638c17.139-1.618 21.005 21.902 4.245 26.959-16.207 1.613-21.565-21.072-4.245-26.959"/><path fill="#0b374f" d="M421.142 89.599c16.472-1.144 20.52 22.051 3.752 26.994-16.28 1.525-20.503-22.589-3.752-26.994"/><path fill="#1ba9ea" d="m546.604 59.004 15.856-.023c5.288 7.978 10.935 16.02 16.356 23.932a736 736 0 0 0 16.632-23.877c5.251-.063 10.719.027 15.985.045-7.399 11.009-16.112 23.883-23.929 34.459 2.77 4.065 23.282 32.68 23.277 34.46l-15.171-.081c-5.557-7.485-11.44-16.593-16.742-24.388-4.509 6.595-12.285 18.465-17.161 24.396-5.297-.073-10.869.036-16.189.065 7.791-11.438 16.607-23.243 24.682-34.619-7.652-11.465-15.769-22.991-23.596-34.369"/><path fill="#0b374f" d="M695.706 89.061c8.878-.394 11.486.304 14.356 8.903l-9.187-.04c-3.21-.078-11.091 1.097-13.15-.857-.667-4.356 4.631-6.802 7.981-8.006"/><path fill="#0b374f" d="M516.944 89.166c9.156-.816 12.091-.071 15.06 8.806l-7.754-.03c-5.095-.08-10.441.04-15.556.075 2.168-5.245 3.098-6.602 8.25-8.851"/><path fill="#0b374f" d="M386.636 164.851a6.402 6.402 0 1 1 4.159 12.11 6.402 6.402 0 0 1-4.159-12.11"/><path fill="#0b374f" d="M268.528 164.828a6.388 6.388 0 1 1 3.92 12.16 6.388 6.388 0 0 1-3.92-12.16"/><path fill="#0b374f" d="M625.492 163.932c2.205-.104 3.336-.153 5.07.976.727 1.573.393 2.468.06 4.179-1.785.563-2.963.881-4.571.151-.913-1.398-.615-3.564-.559-5.306"/><path fill="#0b374f" d="M504.456 163.208c2.017.255 3.891.48 5.168 2.188.526 1.643.099 2.371-.476 3.965-2.083.571-2.529.838-4.264.213-.959-1.536-.525-4.428-.428-6.366"/><path fill="#0b374f" d="M244.411 163.336c2.692.499 3.643.345 4.764 3.047-.267 1.683-.373 1.853-1.537 3.101-1.358.277-1.694.423-3.067.176-1.807-1.682-1.816-4.659-.16-6.324"/><path fill="#0b374f" d="M530.556 164.683c1.679 1.086 2.875 5.656 2.725 7.675l-1.217.635c-1.657-.196-2.264.014-3.432-.881-.349-2.293 1.044-4.951 1.924-7.429"/><path fill="#0b374f" d="M222.595 163.369c2.904.468 3.953.242 5.513 2.813.076 1.873-.135 2.172-.962 3.82-1.597.647-2.671 1.158-4.23.426-.972-1.624-.449-5.005-.321-7.059"/></g></svg>