<?xml version="1.0" encoding="utf-8" ?><svg xmlns="http://www.w3.org/2000/svg" xmlns:xlink="http://www.w3.org/1999/xlink" width="818" height="215" viewBox="0 0 818 215"><clipPath id="cl_3"><rect x="0.00012207031" width="818" height="215"/></clipPath><g clip-path="url(#cl_3)"><path fill="#0F3952" transform="translate(-116 -124)" d="M209.495 142.204C220.199 141.853 230.419 141.571 240.801 144.36C267.933 151.648 285.274 165.355 299.562 188.843C284.904 203.188 270.459 217.749 256.233 232.521C252.647 224.535 250.219 220.406 245.653 213.083C253.201 205.652 260.649 198.121 267.995 190.491C264.047 185.611 255.563 179.164 250.018 176.262C198.957 149.539 142.061 193.296 158.132 249.381C161.101 261.487 171.286 273.985 180.03 282.428C182.693 279.382 186.022 275.996 188.82 272.998C195.088 279.652 200.371 283.093 209.014 285.763C205.209 288.777 198.28 296.606 194.644 300.418C187.948 307.36 181.129 314.183 174.191 320.884C163.543 320.832 152.894 320.863 142.246 320.976C147.894 316.538 156.171 306.656 161.737 301.087C143.895 283.431 133.548 266.697 130.441 241.35C124.248 190.84 159.254 147.782 209.495 142.204Z"/><path fill="#1CA9EA" transform="translate(-116 -124)" d="M219.079 182.418C229.172 197.498 251.493 227.583 252.514 244.749C253.05 253.756 250.258 262.415 244.209 269.15C237.345 276.793 228.793 280.182 218.672 280.709C195.732 280.18 179.809 258.386 186.237 237.507C191.1 221.709 209.117 196.036 219.079 182.418Z"/><path fill="#52C5F4" transform="translate(-116 -124)" d="M197.229 234.371C199.074 236.666 195.366 248.191 203.856 258.563C210.556 266.748 222.554 266.916 223.664 268.588C222.73 268.7 221.745 268.673 220.799 268.676L220.745 269.232L222.707 270.12L223.079 271.306C206.036 272.842 188.923 265.531 193.638 244.717C194.619 240.386 194.505 238.308 197.229 234.371Z"/><path fill="#0F3952" transform="translate(-116 -124)" d="M302.327 195.915C306.292 200.784 308.861 223.641 308.726 230.584C308.15 260.237 297.825 280.616 277.321 301.008C283.651 307.633 289.771 314.314 296.227 320.99C285.729 320.826 275.229 320.817 264.73 320.961L255.176 311.392C246.504 302.755 238.168 293.86 229.428 285.266C239.034 281.437 240.486 281.064 248.198 273.673L257.689 283.194C260.753 280.188 263.988 276.943 266.822 273.73C279.878 258.93 285.973 236.684 281.343 217.277C288.392 210.21 295.387 203.089 302.327 195.915Z"/><path fill="#0F3952" transform="translate(-116 -124)" d="M761.047 192.166C783.145 191.902 792.361 216.071 781.173 233.033C773.588 244.534 758.345 245.69 747.319 237.631L747.255 243.102C747.393 247.713 747.351 252.472 747.368 257.097C743.366 256.926 739.036 257.112 735.004 257.208C734.135 236.457 734.208 214.453 733.756 193.518C737.925 193.521 742.093 193.459 746.26 193.334C747.843 194.506 746.293 194.633 747.28 196.952C749.273 196.752 752.719 194.328 754.925 193.529C757.266 192.682 758.607 192.501 761.047 192.166ZM761.749 230.081C768.765 229.119 773.653 222.626 772.64 215.618C771.626 208.609 765.099 203.767 758.098 204.832C751.168 205.885 746.387 212.332 747.39 219.269C748.393 226.206 754.805 231.034 761.749 230.081Z"/><path fill="#0F3952" transform="translate(-116 -124)" d="M456.982 192.172C463.654 191.566 469.118 193.979 473.421 199C478.24 195.269 482.031 192.32 488.432 192.211C500.185 192.01 507.368 199.304 507.667 210.862C507.938 221.315 507.892 231.463 507.937 241.761C503.677 241.718 499.345 241.773 495.078 241.787C495.147 232.661 499.202 189.413 478.324 208.46C476.189 214.686 476.851 223.145 476.909 229.771L476.954 241.722L464.931 241.663C464.992 232.199 465.436 222.475 464.606 213.076C463.62 201.912 447.58 201.95 446.801 212.608C446.114 222.02 446.594 232.199 446.529 241.752C442.286 241.631 437.695 241.775 433.424 241.832L432.906 193.527C436.187 193.504 439.486 193.507 442.772 193.514C447.103 193.522 443.719 195.996 445.446 197.924C450.003 193.79 450.99 193.516 456.982 192.172Z"/><path fill="#0F3952" transform="translate(-116 -124)" d="M535.902 192.197C549.908 189.585 563.355 198.897 565.839 212.925C568.322 226.954 558.888 240.316 544.837 242.671C530.967 244.996 517.814 235.71 515.362 221.861C512.911 208.012 522.077 194.775 535.902 192.197ZM544.211 229.859C548.69 228.53 552.101 224.883 553.128 220.325C554.154 215.767 552.637 211.01 549.16 207.888C545.683 204.767 540.791 203.769 536.369 205.279C529.723 207.55 526.113 214.72 528.248 221.411C530.383 228.102 537.477 231.857 544.211 229.859Z"/><path fill="#0F3952" transform="translate(-116 -124)" d="M355.798 192.311C369.693 189.814 382.981 199.057 385.476 212.953C387.97 226.849 378.726 240.136 364.83 242.628C350.936 245.121 337.652 235.879 335.158 221.985C332.664 208.091 341.904 194.806 355.798 192.311ZM361.586 230.299C368.62 229.6 373.778 223.366 373.148 216.326C372.518 209.286 366.336 204.067 359.29 204.628C352.146 205.197 346.838 211.485 347.476 218.623C348.115 225.761 354.455 231.007 361.586 230.299Z"/><path fill="#1CA9EA" transform="translate(-116 -124)" d="M712.826 177.602C718.065 177.461 723.659 177.513 728.926 177.474C721.354 187.875 714.139 198.559 706.481 208.98C713.126 219.163 723.076 231.985 728.826 241.962L711.447 241.984C706.996 236.094 701.791 228.051 697.52 221.845C693.328 227.497 687.429 237.057 683.173 241.974C677.51 241.942 671.847 241.959 666.184 242.026C673.298 232.695 682.498 217.618 689.486 209.497C681.927 199.12 674.45 188.007 667.134 177.422C672.754 177.604 678.958 177.523 684.624 177.565C689.494 184.396 694.208 191.336 698.763 198.381C703.583 192.051 708.005 184.31 712.826 177.602Z"/><path fill="#0F3952" transform="translate(-116 -124)" d="M813.555 192.173C814.14 192.16 814.726 192.161 815.311 192.176C833.573 192.623 838.589 204.574 838.096 220.715L803.659 220.776C807.738 234.889 820.39 233.207 830.296 225.871L832.782 229.331C834.032 230.708 836.038 233.783 837.174 235.419C827.57 243.673 812.991 245.806 802.11 238.684C796.669 235.19 792.863 229.653 791.551 223.322C788.257 206.601 796.957 195.253 813.555 192.173ZM803.715 211.971L818.625 211.992C821.01 211.971 824.126 212.034 826.443 211.797C824.752 204.448 821.071 202.324 813.68 202.564C807.717 204.251 806.148 206.371 803.715 211.971Z"/><path fill="#0F3952" transform="translate(-116 -124)" d="M637.336 192.175C656.46 192.995 660.532 204.319 660.973 220.854C649.323 220.696 637.489 221.071 625.859 220.666C629.03 234.576 643.139 233.946 652.412 226.065L654.938 229.25C656.527 231.131 657.833 233.325 659.157 235.41C644.754 249.197 616.55 243.699 613.716 222.102C611.422 204.622 620.468 194.581 637.336 192.175ZM626.21 211.591C630.681 212 633.747 212.063 638.25 212.03L649.301 212.016C647.263 205.67 644.535 202.636 637.396 202.596C631.124 203.677 628.822 205.858 626.21 211.591Z"/><path fill="#0F3952" transform="translate(-116 -124)" d="M586.498 192.632C593.56 191.672 599.981 193.343 606.578 195.642C605.821 198.123 604.857 203.977 604.321 206.755C600.142 204.834 594.564 202.332 589.905 203.104C587.251 203.544 584.815 204.602 585.331 207.712C589.491 213.247 606.504 212.988 607.48 225.086C608.424 236.781 602.149 241.22 591.523 242.703C582.623 242.819 579.622 242.161 571.107 239.3C572.053 235.693 573.117 232.117 574.297 228.579C579.428 231.113 594.968 236.714 594.841 228.047C594.757 222.262 572.91 220.848 572.264 209.47C571.596 197.727 576.741 194.553 586.498 192.632Z"/><path fill="#0F3952" transform="translate(-116 -124)" d="M408.49 192.182C415.161 192.622 418.219 193.567 424.746 195.491C424.3 199.4 423.386 203.032 422.497 206.853C417.174 203.994 409.119 200.765 403.621 204.868C402.774 205.5 402.95 205.948 402.933 206.876C406.345 213.042 425.58 212.729 425.539 226.39C425.5 239.429 417.27 242.434 405.853 242.778C399.05 242.612 395.652 241.572 389.373 239.142C390.415 235.536 391.383 232.143 392.249 228.491C397.352 231.012 405.855 235.122 411.532 230.963C412.454 230.288 413.054 229.084 413.081 227.922C411.396 221.489 390.527 220.61 390.221 208.91C389.893 196.399 397.962 193.481 408.49 192.182Z"/><path fill="#0F3952" transform="translate(-116 -124)" d="M889.038 180.684L902.053 180.506L901.949 193.211C905.839 193.334 909.059 193.31 912.95 193.172L912.953 204.757L901.935 204.755C901.952 211.316 901.295 218.362 901.804 224.808C902.371 231.998 909.264 231.216 914.175 230.273C913.795 232.513 913.365 234.743 912.887 236.964C911.873 241.778 910.248 242.481 905.408 242.901C883.955 244.762 889.01 219.807 889.095 204.714L880.447 204.851L880.504 193.271L889.032 193.336L889.038 180.684Z"/><path fill="#0F3952" transform="translate(-116 -124)" d="M871.79 192.631L877.057 192.418C876.393 196.247 875.951 201.835 875.512 205.816C854.191 203.33 860.005 226.602 860.072 241.797C856.666 241.672 852.432 241.806 848.961 241.817L848.496 241.823C847.571 240.821 846.813 198.463 846.855 193.513L859.158 193.434C859.188 194.946 859.45 197.17 859.586 198.735C864.059 194.502 865.83 193.616 871.79 192.631Z"/><path fill="#0F3952" transform="translate(-116 -124)" d="M178.156 199.353C180.439 202.298 188.794 210.364 191.706 212.957C187.553 220.564 183.861 226.83 180.818 235.073C176.152 230.321 171.415 225.641 166.608 221.033C168.651 212.936 173.437 206.086 178.156 199.353Z"/><path fill="#0F3952" transform="translate(-116 -124)" d="M387.297 273.267C390.995 272.604 394.768 273.942 397.223 276.786C399.677 279.63 400.448 283.558 399.252 287.12C397.98 290.904 394.697 293.657 390.749 294.248C385 295.11 379.625 291.195 378.681 285.459C377.737 279.723 381.575 274.292 387.297 273.267ZM391.238 290.704C398.421 285.835 396.212 276.808 387.655 276.936C379.501 282.18 382.826 291.916 391.238 290.704Z"/><path fill="#0F3952" transform="translate(-116 -124)" d="M506.298 273.088C508.174 272.951 510.346 273.167 512.102 273.858C514.742 274.903 516.833 276.991 517.882 279.629C518.966 282.356 518.898 285.405 517.694 288.08C516.208 291.335 514.116 292.662 510.944 293.891C508.247 294.195 506.147 294.544 503.601 293.373C501.093 292.207 499.166 290.072 498.262 287.458C497.282 284.622 497.468 281.512 498.78 278.813C500.506 275.304 502.815 274.284 506.298 273.088ZM509.562 290.802C517.461 285.247 515.355 276.369 506.446 276.998C499.128 280.233 500.701 291.313 509.562 290.802Z"/><path fill="#0F3952" transform="translate(-116 -124)" d="M668.321 273.01C669.745 272.942 670.327 272.963 671.744 273.122C674.805 275.268 677.17 283.642 678.536 287.373C680.718 283.079 682.32 276.763 685.163 272.854C685.726 272.079 685.97 272.282 687.017 272.236C689.738 274.671 689.924 290.917 688.766 294.278C687.452 294.567 687.249 294.488 685.945 294.117C685.061 292.879 685.125 286.821 685.06 284.876L685.019 281.119C683.447 283.877 680.419 293.651 677.887 293.858C675.996 292.063 673.028 283.992 671.851 281.095C671.617 283.833 671.191 292.182 670.264 294.386C668.662 294.413 668.505 294.69 667.374 293.889C667.162 288.735 668.093 278.775 668.321 273.01Z"/><path fill="#0F3952" transform="translate(-116 -124)" d="M883.905 286.858C883.397 283.275 883.461 278.646 883.487 274.952C883.496 273.795 884.086 273.613 884.894 273.029C886.717 272.949 886.065 272.746 887.452 273.649C888.166 277.582 887.586 289.976 887.483 294.505L884.749 294.359C881.978 293.015 876.769 284.007 874.764 280.934C874.529 284.984 875.414 290.673 873.601 293.741C872.08 294.606 872.742 294.491 871.111 294.266C869.439 292.018 870.266 276.917 870.336 273.002C871.162 272.959 873.277 272.816 873.882 273.293C878.015 276.552 881.16 282.428 883.905 286.858Z"/><path fill="#0F3952" transform="translate(-116 -124)" d="M729.995 287.205C729.99 284.482 729.361 274.767 731.112 273.049L733.326 273.116C734.545 275.16 733.878 290.668 733.808 294.221C731.03 294.458 730.319 294.304 728.525 292.042C725.774 288.574 723.417 284.529 721.064 280.778C721.008 283.744 721.584 292.463 720.072 294.39C718.549 294.423 718.537 294.661 717.336 293.954C716.665 289.697 716.997 277.92 717.013 272.965C718.245 272.926 718.718 273.008 719.94 273.208C723.565 275.597 727.629 283.244 729.995 287.205Z"/><defs><linearGradient id="gradient_0" gradientUnits="userSpaceOnUse" x1="742.34009" y1="284.01816" x2="754.85358" y2="283.04459"><stop offset="0" stop-color="#11354F"/><stop offset="1" stop-color="#204757"/></linearGradient></defs><path fill="url(#gradient_0)" transform="translate(-116 -124)" d="M742.022 273.029C746.2 272.936 756.015 272.622 755.955 279.633C755.934 282.032 753.475 284.04 751.728 285.468C753.153 287.701 757.874 292.505 756.121 294.494L753.009 294.574C751.178 291.864 749.005 288.131 747.207 285.691C744.968 286.474 746.782 292.533 745.505 294.353C744.125 294.478 743.784 294.566 742.49 294.109C741.72 292.985 742.028 275.891 742.022 273.029ZM750.859 282.363C751.074 280.692 751.499 279.168 750.662 277.766C749.365 276.678 747.75 276.789 746.017 276.67C745.958 278.308 745.635 280.867 746.505 282.12C747.813 282.903 749.245 282.524 750.859 282.363Z"/><path fill="#0F3952" transform="translate(-116 -124)" d="M357.523 272.823C359.184 272.964 361.028 272.846 362.705 273.007C371.906 273.893 374.391 279.834 367.006 285.714C368.5 287.987 372.007 291.517 371.879 293.886C370.723 294.862 370.077 294.505 368.202 294.519C366.068 290.994 363.85 287.521 361.551 284.101C361.523 286.656 361.696 291.544 360.835 293.916C360.606 294.547 360.082 294.505 359.298 294.732L358.383 293.973C356.77 290.059 357.451 277.771 357.523 272.823ZM365.68 282.215C366.584 280.765 366.578 280.444 366.722 278.794C365.332 276.419 363.78 276.819 361.145 276.72C361.622 278.886 360.972 281.096 361.829 282.484C363.201 282.882 364.295 282.518 365.68 282.215Z"/><path fill="#0F3952" transform="translate(-116 -124)" d="M796.243 272.911C796.633 272.911 798.484 272.945 798.723 273.034C802.442 274.411 807.35 283.803 809.281 287.061C809.529 282.997 808.644 277.36 810.083 273.912C811.403 272.931 810.754 273.153 812.675 273.28C813.297 275.073 813.2 292.578 812.799 294.723C806.238 294.471 803.86 283.172 800.547 281.978C799.401 284.596 801.174 291.891 799.088 294.57C797.603 294.884 798.207 294.967 796.824 294.214C795.746 292.457 796.214 276.212 796.243 272.911Z"/><path fill="#0F3952" transform="translate(-116 -124)" d="M539.099 286.176C539.469 281.486 537.421 274.204 542.25 272.779C543.564 274.182 543.006 291.081 542.993 294.295C542.251 294.383 541.072 294.302 540.281 294.274C537.629 292.786 532.991 284.504 530.175 281.113C529.854 285.029 530.838 290.757 529.26 293.743C527.877 294.596 528.498 294.459 526.926 294.295C525.8 291.208 526.253 277.083 526.296 272.908L528.992 273.099C532.174 274.908 536.784 282.834 539.099 286.176Z"/><path fill="#0F3952" transform="translate(-116 -124)" d="M621.126 273.041C622.539 273.006 623.951 272.993 625.364 273.002C634.395 273.099 638.222 278.882 630.537 285.646C631.951 287.602 635.618 291.978 635.406 294.179C633.817 294.846 633.548 294.509 631.589 294.298C629.327 290.714 627.788 288.238 625.09 285.006C625.026 287.517 625.571 292.488 624.202 294.276C622.915 294.499 622.604 294.624 621.437 294.085C620.879 291.637 621.111 276.235 621.126 273.041ZM629.621 282.152C630.245 280.656 630.305 280.459 630.279 278.842C628.86 276.654 627.788 276.849 625.301 276.722C625.039 278.447 624.61 280.287 625.03 281.945C626.684 283.313 627.568 282.671 629.621 282.152Z"/><path fill="#0F3952" transform="translate(-116 -124)" d="M649.312 273.016C650.302 272.994 653.008 272.912 653.413 273.508C655.021 275.875 660.947 292.216 660.867 294.185C659.515 294.745 659.341 294.742 657.9 294.467C656.466 293.508 656.211 291.232 655.255 289.225L654.125 288.937C651.959 288.929 649.719 288.849 647.547 288.802C647.028 290.561 646.693 291.822 645.9 293.487C644.282 294.649 644.774 294.31 642.483 294.331L642.004 293.761C642.464 290.256 647.832 276.906 649.312 273.016ZM652.358 285.517L653.222 284.665C653.07 282.869 652.323 279.911 651.384 278.457C650.542 280.281 648.977 282.858 649.488 284.642C650.578 285.485 650.88 285.297 652.358 285.517Z"/><path fill="#0F3952" transform="translate(-116 -124)" d="M841.192 273.121C844.266 272.834 847.909 273.303 850.416 275.239L849.939 276.852C846.344 279.134 842.682 276.437 840.33 277.553C833.21 280.933 837.181 294.201 846.687 290.367C847.28 289.159 847.164 288.551 847.113 287.239C845.937 285.976 844.794 286.44 842.495 286.28L841.814 285.405L842.221 283.063L850.992 283.025L850.968 292.423C843.884 295.042 840.106 295.287 834.208 290.295C833.852 289.596 833.55 288.87 833.305 288.125C830.798 280.638 834.001 275.521 841.192 273.121Z"/><path fill="#0F3952" transform="translate(-116 -124)" d="M903.821 273.1C906.193 272.88 909.106 273.407 911.319 274.283C911.947 275.755 911.87 275.093 911.345 276.914C908.842 279.078 894.116 274.432 899.897 287.752C901.652 291.796 908.735 292.655 909.56 287.419C907.677 284.781 906.149 287.588 903.64 285.297C903.738 284.3 903.882 284.201 904.464 283.327L904.638 283.071L912.992 283.025L912.996 292.498C912.278 292.751 911.553 292.983 910.821 293.192C901.775 295.751 896.583 293.576 894.312 284.383C895.773 277.374 896.65 275.288 903.821 273.1Z"/><path fill="#0F3952" transform="translate(-116 -124)" d="M336.887 273.016C341.47 272.912 354.086 273.041 349.213 283.194C348.068 285.58 344.075 286.575 341.455 286.853L340.829 286.711C340.151 287.843 340.43 291.784 340.262 293.658L339.28 294.373C337.492 294.432 338.036 294.667 336.956 293.753C336.835 286.841 336.813 279.928 336.887 273.016ZM345.422 282.016C345.955 280.516 346.217 280.05 345.902 278.438C344.341 276.582 343.571 276.662 341.027 276.433L340.484 276.387C340.417 278.297 340.014 281.274 341.015 282.729C342.62 283.255 343.926 282.829 345.422 282.016Z"/><path fill="#0F3952" transform="translate(-116 -124)" d="M426.874 273.038C429.324 273.082 437.13 272.37 438.579 273.613C438.61 274.75 438.792 275.699 438.219 276.622C436.314 277.295 432.539 277.003 430.371 276.954C430.242 278.443 430.07 279.427 430.432 280.902C432.76 283.526 434.923 281.42 437.926 282.263C438.505 283.76 438.3 283.424 437.928 285.221C436.932 285.834 432.595 285.244 430.347 285.644L430.561 286.248C430.368 287.761 429.993 289.291 430.481 290.672C434.049 292.305 437.479 288.688 439.436 292.541L439.086 293.567C437.386 294.592 429.48 294.293 426.908 294.308C426.824 287.218 426.812 280.128 426.874 273.038Z"/><path fill="#0F3952" transform="translate(-116 -124)" d="M471.686 273.027C473.543 272.975 476.026 273.082 477.576 274.145C478.066 275.487 477.974 274.931 477.536 276.614C475.255 278.233 471.798 276.095 469.996 278.353C470.876 281.866 478.062 283.181 479.433 287.974C479.768 289.144 479.69 290.107 479.002 291.127C477.512 293.337 473.279 294.298 470.835 294.618C469.158 294.383 467.419 294.343 466.128 293.319C465.325 292.071 465.504 290.581 465.514 289.079C466.159 288.584 472.651 293.401 475.092 289.588C473.872 285.634 456.546 278.354 471.686 273.027Z"/><path fill="#0F3952" transform="translate(-116 -124)" d="M451.733 273.014C453.404 272.916 456.208 273.331 457.657 274.219C458.174 275.484 458.048 275.736 457.676 277.075C456.26 277.906 454.264 277.09 452.186 276.748C450.443 277.394 451.029 276.918 450.028 278.606C451.899 281.794 469.068 290.867 452.059 294.581C450.242 294.501 447.266 294.425 446.003 293.164C445.61 291.717 445.655 291.482 445.845 289.986C447.844 288.954 451.181 293.066 454.512 289.992C455.139 286.017 436.193 278.187 451.733 273.014Z"/><path fill="#0F3952" transform="translate(-116 -124)" d="M551.462 273.056C553.584 273.058 562.656 272.72 563.682 273.563L563.659 275.161C561.045 279.063 557.227 275.085 554.924 278.935C555.048 280.386 554.967 281.092 555.801 282.276C556.054 283.413 555.719 284.351 555.464 285.512L555.381 291.021C557.719 290.997 561.728 290.639 563.753 291.381C563.938 292.589 563.914 292.73 563.416 293.848C561.922 294.518 553.565 294.316 551.511 294.324C551.404 287.235 551.387 280.145 551.462 273.056Z"/><path fill="#0F3952" transform="translate(-116 -124)" d="M419.751 273.01L419.744 276.999C417.487 277.037 414.019 276.403 412.297 277.265C411.028 278.964 411.351 279.833 411.167 282.181C413.964 282.895 416.209 282.183 418.922 282.682C419.429 283.933 419.229 283.675 418.959 285.243C416.532 287.229 414.563 285.062 411.686 286.24C411.33 286.981 411.184 287.17 411.131 288.014C411.293 290.43 411.93 292.409 410.198 294.133C408.721 294.34 408.693 294.611 407.649 293.946C406.682 289.803 407.23 277.766 407.324 273.046L419.751 273.01Z"/><path fill="#0F3952" transform="translate(-116 -124)" d="M764.047 273.06C766.819 273.018 772.256 272.801 774.777 273.146C776.42 274.299 775.959 273.678 776.635 275.438L776.158 276.507C773.717 278.088 769.709 275.442 767.867 277.733C767.902 279.505 767.77 280.204 768.823 281.625C771.286 283.205 773.241 280.668 775.361 282.841C775.575 284.075 775.728 284.329 775.232 285.407C772.848 285.504 770.358 285.471 767.965 285.476C767.93 287.758 767.813 288.923 768.441 291.105L768.967 291.825C768.116 293.254 768.198 292.649 768.531 294.093C766.95 294.272 765.95 294.5 764.435 293.936C763.789 291.964 764.039 276.042 764.047 273.06Z"/><path fill="#0F3952" transform="translate(-116 -124)" d="M697.175 273.086C700.712 273.01 706.993 272.161 709.238 274.304C709.65 275.843 709.723 275.212 708.926 276.659C707.07 277.589 704.096 276.39 701.287 277.051C700.711 278.56 701.025 280.35 701.153 282L702.092 283.801L700.808 284.986C700.973 286.7 700.959 289.257 701.005 291.04C703.572 290.981 708.412 290.103 709.698 292.378L709.112 293.738C707.459 294.548 699.607 294.292 697.346 294.306L697.175 273.086Z"/><path fill="#0F3952" transform="translate(-116 -124)" d="M590.156 273.056C593.907 273.001 600.785 271.82 602.549 275.119C601.317 279.072 597.107 275.582 594.1 277.275C593.771 279.062 594.071 280.357 594.334 282.148L594.092 285.476C593.964 286.966 594.022 289.472 594.008 291.044C596.148 290.983 600.291 290.647 602.133 291.314C602.394 292.537 602.412 292.69 601.91 293.829C600.519 294.432 592.262 294.248 590.313 294.256L590.156 273.056Z"/><path fill="#0F3952" transform="translate(-116 -124)" d="M571.435 273.009C572.899 272.964 573.263 273.018 574.703 273.302C575.11 275.039 575.01 287.874 575.017 290.499C577.404 290.579 580.852 289.927 582.709 290.914C583.586 292.42 583.258 292.212 582.979 294.342C579.569 294.142 574.937 294.351 571.43 294.415C571.36 287.322 571.432 280.113 571.435 273.009Z"/><path fill="#0F3952" transform="translate(-116 -124)" d="M784.175 272.983C785.253 272.983 786.411 273.081 787.494 273.15C788.874 274.705 788.251 291.086 788.216 294.461L784.913 294.291C783.706 292.439 784.161 276.456 784.175 272.983Z"/><path fill="#0F3952" transform="translate(-116 -124)" d="M821.391 273.03C823.087 272.965 823.49 272.923 825.174 273.314C825.689 275.343 825.426 291.063 825.409 294.03C824.168 294.178 822.562 294.475 821.617 293.727C821.056 288.801 821.367 278.381 821.391 273.03Z"/><path fill="#0F3952" transform="translate(-116 -124)" d="M486.552 273.04C487.973 272.988 489.121 272.789 490.365 273.399C490.86 278.605 490.518 288.712 490.477 294.285C488.524 294.36 488.259 294.675 486.736 293.903C486.18 289.135 486.517 278.277 486.552 273.04Z"/><path fill="#0F3952" transform="translate(-116 -124)" d="M858.995 273.034C860.516 272.98 860.875 272.99 862.365 273.286C862.863 277.96 862.475 289.021 862.424 294.174C861.167 294.258 860.318 294.43 859.14 294C858.621 289.217 858.964 278.281 858.995 273.034Z"/><path fill="#263D55" transform="translate(-116 -124)" d="M594.334 282.148C596.853 281.985 599.901 281.349 601.797 283.275C601.389 286.158 596.335 285.541 594.092 285.476L594.334 282.148Z"/><path fill="#263D55" transform="translate(-116 -124)" d="M768.441 291.105C770.775 290.97 773.583 290.511 775.55 291.602L776.193 292.519C774.821 294.895 771.083 294.217 768.531 294.093C768.198 292.649 768.116 293.254 768.967 291.825L768.441 291.105Z"/><path fill="#263D55" transform="translate(-116 -124)" d="M555.801 282.276C558.472 281.971 560.858 281.318 563.114 283.117C562.969 286.137 557.646 285.543 555.464 285.512C555.719 284.351 556.054 283.413 555.801 282.276Z"/><path fill="#263D55" transform="translate(-116 -124)" d="M701.153 282C703.294 281.925 705.802 281.58 707.615 282.596L708.533 283.642C707.462 286.247 703.062 285.594 700.808 284.986L702.092 283.801L701.153 282Z"/></g></svg>