<?xml version="1.0" encoding="utf-8" ?><svg xmlns="http://www.w3.org/2000/svg" xmlns:xlink="http://www.w3.org/1999/xlink" width="916" height="375" viewBox="0 0 916 375"><clipPath id="cl_3"><rect x="-0.00017166138" y="2.6702881e-05" width="916.00006" height="374.99997"/></clipPath><g clip-path="url(#cl_3)"><path fill="#FEFEFE" transform="matrix(0.508889 0 0 0.50882 -62.5935 -44.2673)" d="M406.648 246.596C424.602 243.75 455.228 247.02 472.53 252.118C525.138 267.618 558.836 295.124 585.426 341.906C555.854 370.984 527.002 400.786 498.898 431.286C494.8 415.03 491.176 407.432 481.652 393.538C493.41 379.414 514.926 358.276 528.106 344.468C424.926 236.882 257.262 329.802 301.534 468.634C310.726 496.488 324.664 512.968 345.214 532.632L362.94 513.188C376.112 527.798 386.47 533.422 405.32 537.928C383.546 558.308 354.536 592.36 333.37 610.336C319.43 611.71 283.49 610.69 268.08 610.676C281.5 596.648 295.18 582.872 309.114 569.356C271.344 536.866 248.242 500.92 242.91 450.708C231.654 344.734 301.858 258.13 406.648 246.596Z"/><path fill="#1BA9EA" transform="matrix(0.508889 0 0 0.50882 -62.5935 -44.2673)" d="M423.308 326.598C426.686 329.942 439.612 349.808 442.942 355.236C461.266 385.11 489.158 420.914 492.266 456.566C493.764 473.748 488.442 490.888 476.974 503.484C460.464 521.616 446.812 526.046 423.376 527.692C388.14 525.948 361.066 503.908 355.702 468.388C354.312 459.21 354.826 449.846 357.21 440.876C365.33 409.432 402.976 354.136 423.308 326.598Z"/><path fill="#50C5F4" transform="matrix(0.508889 0 0 0.50882 -62.5935 -44.2673)" d="M379.6 434.81C381.394 437.782 380.53 445.122 381.096 448.998C386.086 483.176 402.816 495.064 434.756 500.866L422.206 506.712C413.08 509.72 403.83 508.35 395.35 504.022C384.84 498.662 376.932 489.298 373.408 478.038C368.814 463.174 372.456 448.098 379.6 434.81Z"/><path fill="#FEFEFE" transform="matrix(0.508889 0 0 0.50882 -62.5935 -44.2673)" d="M592.558 356.762C592.69 356.904 592.824 357.048 592.956 357.19C607.082 385.71 609.12 421.92 605.956 453.092C601.258 499.38 575.534 538.428 539.87 566.918C554.178 581.174 568.16 595.752 581.81 610.638C562.816 609.876 537.87 610.6 518.352 610.662L502.42 594.048C484.398 576.328 465.498 555.564 447.958 537.038C465.58 530.732 472.546 526.288 485.398 513.064L504.136 532.35C543.774 493.014 563.496 456.006 550.59 399.048C563.724 385.172 580.532 371.15 592.558 356.762Z"/><path fill="#FEFEFE" transform="matrix(0.508889 0 0 0.50882 -62.5935 -44.2673)" d="M1503.94 376.034C1550.75 371.244 1574.1 424.796 1546.91 459.778C1530.43 480.98 1501.56 482.846 1481.15 465.608L1481.15 477.876L1481.24 511.05L1454.92 511.006L1454.78 378.866C1462.89 378.748 1470.86 378.542 1478.96 379.038C1481.86 382.162 1478.74 383.394 1480.92 386.534C1486.36 385.354 1491.54 379.188 1503.94 376.034ZM1512.02 453.594C1520.56 449.552 1526.32 445.49 1529.56 435.964C1532.03 428.612 1531.44 420.58 1527.92 413.67C1524.74 407.606 1519.28 403.06 1512.74 401.038C1508.71 399.782 1503.64 399.9 1499.41 400.138C1467.24 410.978 1478.31 459.53 1512.02 453.594Z"/><path fill="#FEFEFE" transform="matrix(0.508889 0 0 0.50882 -62.5935 -44.2673)" d="M896.342 376.16C913.986 374.266 922.562 376.51 933.678 390.34C944.87 379.3 949.646 377.16 965.158 376.686C999.198 375.642 1004.46 402.034 1003.87 429.562C1003.56 444.232 1003.97 460.56 1003.99 475.362C994.832 475.178 985.446 475.256 976.268 475.226C976.362 460.61 979.08 409.572 971.184 404.44C934.046 380.3 942.02 448.684 942.08 454.814L942.164 475.346C933.038 475.036 923.162 475.224 913.976 475.226C913.87 460.528 918.028 412.986 908.624 403.366C905.83 400.51 902.098 399.224 898.144 399.282C893.548 399.348 889.198 400.882 886.022 404.29C876.07 414.968 880.106 459.764 880.606 475.208C871.382 475.096 862.008 475.18 852.77 475.176C853.324 443.068 853 410.95 851.798 378.86C857.216 378.95 873.418 377.438 876.548 379.928L876.956 386.344L877.812 386.862C886.4 381.31 886.77 379.684 896.342 376.16Z"/><path fill="#FEFEFE" transform="matrix(0.508889 0 0 0.50882 -62.5935 -44.2673)" d="M695.324 377.364C708.94 376.128 722.586 377.134 734.724 383.964C745.708 390.088 753.726 400.418 756.934 412.578C765.346 444.672 746.898 468.646 716.298 476.316C646.554 485.842 624.77 393.508 695.324 377.364ZM708.658 453.404C725.28 447.832 735.354 434.13 729.29 416.426C727.158 410.03 722.476 404.8 716.354 401.978C712.664 400.28 707.682 399.31 703.62 399.274C670.528 406.246 672.578 452.852 708.658 453.404Z"/><path fill="#FEFEFE" transform="matrix(0.508889 0 0 0.50882 -62.5935 -44.2673)" d="M1059.5 377.264C1073.42 376.526 1084.59 376.76 1097.26 384.208C1108.52 390.874 1116.57 401.834 1119.57 414.562C1126.98 445.286 1107.62 468.908 1078.68 475.994C1006.49 485.07 990.396 391.134 1059.5 377.264ZM1069.86 453.462C1086.32 450.026 1096.07 436.718 1092.47 419.942C1091.05 413.042 1086.91 407.006 1080.99 403.2C1077.1 400.746 1071.96 399.612 1067.42 399.3C1050.65 401.922 1040.17 414.014 1043.18 431.358C1044.38 438.406 1048.4 444.66 1054.32 448.676C1059.18 452.032 1064.08 453.07 1069.86 453.462Z"/><path fill="#1BA9EA" transform="matrix(0.508889 0 0 0.50882 -62.5935 -44.2673)" d="M1314.64 336.994L1345.92 337.058C1356.85 350.152 1368.73 370.794 1380.32 385.736C1390.84 369.442 1401.61 353.31 1412.62 337.344C1423.79 337.466 1434.51 337.584 1445.69 337.228C1432.58 358.26 1411.99 385.964 1397.48 406.862C1408.47 425.096 1436 459.594 1443.87 476.11C1434.8 476.724 1421.98 476.406 1412.63 476.458C1401.53 460.218 1390.53 443.912 1379.62 427.544L1346.2 476.248C1334.82 476.218 1323.82 476.162 1312.43 476.646C1327.88 453.31 1346.27 430.154 1362.3 406.7C1349.36 385.486 1329.12 358.68 1314.64 336.994Z"/><path fill="#FEFEFE" transform="matrix(0.508889 0 0 0.50882 -62.5935 -44.2673)" d="M1608.71 377.066C1652.55 373 1665.65 393.772 1666.54 433.882C1643.06 434.024 1619.57 433.934 1596.09 433.614C1604.37 461.778 1628.58 457.212 1649.04 444.452C1654.05 451.276 1656.51 455.03 1660.59 462.434C1654.36 468.142 1646.96 472.422 1638.91 474.974C1624.96 479.332 1607.49 478.232 1594.62 471.212C1583.31 465.036 1574.94 454.598 1571.37 442.222C1562.64 411.85 1578.41 385.76 1608.71 377.066ZM1595.69 415.924L1621.69 415.974L1642.43 415.84C1636.12 401.568 1633.25 398.29 1616.93 398.404C1604.32 400.13 1600.61 404.35 1595.69 415.924Z"/><path fill="#FEFEFE" transform="matrix(0.508889 0 0 0.50882 -62.5935 -44.2673)" d="M1253.44 377.208C1296.44 372.426 1309.65 395.052 1310.64 433.902C1287.32 433.558 1263.54 433.832 1240.13 433.636C1247.54 460.64 1271.54 458.554 1290.88 444.9C1296.09 450.276 1299.77 455.778 1303.51 462.202C1287.07 479.19 1258.28 482.074 1238.11 470.272C1227.15 463.834 1219.25 453.244 1216.19 440.9C1208.46 410.364 1222.27 384.928 1253.44 377.208ZM1239.74 415.716L1270.25 415.798L1286 415.698C1279.15 399.438 1274.91 397.236 1256.98 398.262C1245.94 402.796 1244.52 405.088 1239.74 415.716Z"/><path fill="#FEFEFE" transform="matrix(0.508889 0 0 0.50882 -62.5935 -44.2673)" d="M805.268 375.414C817.542 375.716 823.644 377.462 835.1 381.55C835.074 388.658 834.432 397.184 834.072 404.388C825.498 400.442 796.556 388.032 793.258 403.488C796.106 416.91 842.462 417.582 839.984 444.532C837.452 472.09 819.758 477.532 795.598 477.174C783.504 475.876 777.454 474.456 766.412 469.726L770.978 446.462C780.378 451.236 809.582 463.97 814.144 448.082C811.316 434.926 767.85 434.03 767.9 409.948C767.952 385.396 782.844 376.74 805.268 375.414Z"/><path fill="#FEFEFE" transform="matrix(0.508889 0 0 0.50882 -62.5935 -44.2673)" d="M1158.39 376.23C1173.18 374.244 1184.78 376.446 1198.38 381.89C1198.44 388.07 1197.45 397.728 1196.97 404.138C1187.2 399.806 1160.92 387.986 1155.98 403.828C1160.29 417.512 1200.57 417.102 1202.86 440.682C1205.1 463.722 1192.56 473.214 1171.76 477.05C1156.48 477.666 1144.08 476.328 1130.23 469.702C1132.17 463.008 1133.06 454.148 1133.98 447.06C1144.11 452.048 1166.47 462.076 1176.69 450.546C1177.83 449.266 1177.13 447.938 1176.76 446.394C1170.4 438.47 1157.24 436.818 1148.6 431.758C1118.76 414.286 1127.62 385.188 1158.39 376.23Z"/><path fill="#FEFEFE" transform="matrix(0.508889 0 0 0.50882 -62.5935 -44.2673)" d="M1765.21 351.604L1792.33 351.504L1792.06 378.892L1816.1 378.784L1816.09 399.698C1808.78 400.136 1799.1 399.818 1791.61 399.774C1791.96 413.96 1790.32 429.37 1791.91 443.204C1793.5 457.126 1806.49 455.304 1815.91 453.226L1815.84 467.25C1816.46 477.606 1805.38 476.788 1798.08 477.172C1772.12 477.764 1764.43 465.342 1765.41 441.22C1765.94 428.11 1765.83 412.792 1766.05 399.602L1750.21 400.008C1750.77 393.492 1750.61 385.43 1750.64 378.762L1764.98 378.852L1765.21 351.604Z"/><path fill="#FEFEFE" transform="matrix(0.508889 0 0 0.50882 -62.5935 -44.2673)" d="M1731.12 376.188L1740.5 377.284L1737.74 399.884C1729.12 400.014 1721.83 401.15 1715.41 407.52C1706.15 416.708 1707.89 429.798 1708.06 441.642C1708.23 452.902 1708.33 464.174 1708.43 475.44C1699.64 475.116 1689.82 475.336 1680.96 475.344L1680.99 378.828C1689.52 379.028 1698.24 376.822 1704.65 380.234C1706.98 384.09 1706.26 384.966 1706.45 389.9C1715.37 380.496 1718.41 378.636 1731.12 376.188Z"/><path fill="#FEFEFE" transform="matrix(0.508889 0 0 0.50882 -62.5935 -44.2673)" d="M341.122 365.776C348.896 373.21 360.224 386.338 368.324 394.782C356.556 409.378 354.524 415.858 348.11 433.348C344.59 432.942 324.742 411.14 321.4 407.41C326.774 389.282 330.824 381.72 341.122 365.776Z"/><path fill="#FEFEFE" transform="matrix(0.508889 0 0 0.50882 -62.5935 -44.2673)" d="M757.78 541.55C764.24 539.908 771.094 541.44 776.24 545.676C781.386 549.91 784.206 556.344 783.836 562.998C783.316 572.348 776.646 580.216 767.506 582.26C756.342 584.758 745.24 577.826 742.582 566.698C739.924 555.57 746.692 544.37 757.78 541.55ZM767.476 575.286C779.864 564.086 778.416 548.958 760.39 548.928L759.956 548.93C744.576 558.22 749.038 575.038 767.476 575.286Z"/><path fill="#FEFEFE" transform="matrix(0.508889 0 0 0.50882 -62.5935 -44.2673)" d="M996.008 541.37C1007.46 539.458 1018.28 547.25 1020.09 558.72C1021.9 570.188 1014.02 580.938 1002.54 582.654C991.19 584.352 980.596 576.582 978.802 565.25C977.01 553.916 984.69 543.258 996.008 541.37ZM1002.69 575.336C1015 566.15 1015.65 551.092 998.882 549.172C998.312 549.106 997.74 549.048 997.166 548.996C981.096 556.434 985.874 575.802 1002.69 575.336Z"/><path fill="#FEFEFE" transform="matrix(0.508889 0 0 0.50882 -62.5935 -44.2673)" d="M1339.07 569.888C1340.24 566.864 1341.44 563.856 1342.68 560.862C1344.97 555.344 1349.7 541.826 1354.33 539.914C1360.26 544.316 1360.89 576.784 1358.94 582.8C1354.99 583.27 1356.11 583.72 1353.16 581.904C1351.38 578.696 1351.88 571.272 1351.86 567.25C1351.95 564.22 1352.25 561.804 1351.09 558.972C1348.11 560.134 1341.54 579.002 1338.79 584.602C1333.24 577.11 1328.21 563.786 1324.49 554.838C1325 563.952 1326.13 574.206 1323.17 582.81L1321.78 583.406C1316.53 577.54 1318.5 549.114 1319.74 540.884C1321.4 540.878 1323.31 541.006 1324.98 541.074C1329.74 544.322 1335.92 563.056 1339.07 569.888Z"/><path fill="#FEFEFE" transform="matrix(0.508889 0 0 0.50882 -62.5935 -44.2673)" d="M1464.99 540.884C1469.63 540.84 1476.08 540.428 1480.52 541.486C1494.61 544.84 1497.85 557.356 1484.3 564.612C1487.09 568.836 1493.38 576.838 1492.91 581.494C1490.36 583.42 1490.1 582.69 1486.05 582.55C1481.69 575.11 1478.72 570.228 1473.59 563.34C1473.65 568.77 1474.2 577.65 1471.8 582.262C1468.56 583.164 1469.76 583.302 1467.1 582.14C1463.24 576.242 1464.9 549.774 1464.99 540.884ZM1482.9 557.76C1484.05 554.77 1484.81 553.572 1483.79 550.466C1480.1 547.68 1477.85 547.92 1473.03 547.952C1473.13 551.538 1472.81 555.644 1474.82 558.462C1478.31 559.702 1478.81 559.392 1482.9 557.76Z"/><path fill="#FEFEFE" transform="matrix(0.508889 0 0 0.50882 -62.5935 -44.2673)" d="M1222.73 540.592C1230.92 540.62 1243.91 540.018 1249.3 548.438C1253.51 555.026 1246.76 561.598 1241.23 564.954C1244.2 569.122 1250.57 576.578 1250.19 581.308C1247.89 583.622 1247.89 582.85 1243.56 582.984C1239.62 576.212 1235.24 569.482 1231.04 562.85C1231.49 568.714 1233.17 578.346 1230.06 582.87C1226.5 582.928 1226.15 583.52 1223.48 581.884C1222.21 573.93 1222.81 550.436 1222.73 540.592ZM1240 558.1C1241.32 555.3 1241.92 554.504 1241.18 551.4C1238.15 548.066 1235.76 548.028 1231.17 547.684C1231.12 551.076 1230.48 556.778 1232.51 559.132C1235.22 560.038 1237.31 559.008 1240 558.1Z"/><path fill="#FEFEFE" transform="matrix(0.508889 0 0 0.50882 -62.5935 -44.2673)" d="M701.714 540.88C710.116 540.742 722.138 539.828 727.874 548.438C732.526 555.424 725.406 561.904 719.524 565.312C722.642 569.302 729.682 576.92 729.21 581.65C726.902 583.434 726.078 582.7 722.45 582.524C718.084 575.026 715.138 570.194 709.996 563.254C710.202 568.322 711.418 577.456 709.128 581.286C705.792 583.066 706.976 582.606 702.918 582.352C700.266 576.562 701.56 549.17 701.714 540.88ZM719.212 557.676C720.386 553.45 720.502 554.982 719.49 550.8C716.768 548.074 713.846 547.904 710.008 547.67C709.944 551.15 709.326 555.93 711.246 558.496C714.166 559.566 716.126 558.58 719.212 557.676Z"/><path fill="#FEFEFE" transform="matrix(0.508889 0 0 0.50882 -62.5935 -44.2673)" d="M1414.65 540.822C1416.66 540.848 1418.43 541.076 1420.42 541.298C1427.57 546.036 1435.73 561.536 1440.34 569.36C1440.38 561.584 1438.26 548.686 1441.44 542.522C1444.4 540.604 1442.99 540.994 1446.91 541.376C1449.42 547.158 1448.13 575.692 1447.41 582.948L1442.51 582.636C1436.63 579.456 1426.09 561.286 1421.93 554.998C1422.33 562.61 1423.18 573.6 1421.85 581.188C1421.73 581.882 1420.49 582.302 1419.63 582.776L1417.36 581.814C1413.38 575.644 1414.7 550.034 1414.65 540.822Z"/><path fill="#FEFEFE" transform="matrix(0.508889 0 0 0.50882 -62.5935 -44.2673)" d="M1720.83 540.542L1725.95 540.79C1731.79 544.112 1741.46 562.172 1747.2 569.646C1746.77 562.014 1744.56 549.062 1747.22 542.556C1749.93 540.324 1748.57 540.83 1752.57 540.99C1755.24 544.432 1754.1 575.556 1754.08 582.558L1749.35 582.408C1742.93 579.488 1732.67 562.208 1728 555.282C1728.27 559.84 1729 579.148 1727.74 582.688C1724.54 583.034 1725.74 583.356 1723.22 581.586C1719.46 575.02 1720.89 550.232 1720.83 540.542Z"/><path fill="#FEFEFE" transform="matrix(0.508889 0 0 0.50882 -62.5935 -44.2673)" d="M1571.46 540.146C1577.57 541.228 1578.68 542.256 1582.33 547.2C1587.98 554.878 1592.64 563.706 1597.68 571.828C1597.19 561.548 1597.11 550.932 1596.9 540.618L1604.48 540.458L1604.66 580.768L1604.11 582.092C1595.88 585.86 1582.23 561.072 1577.85 554.452C1578.52 558.97 1580.09 577.646 1578.53 581.312C1575.74 583.362 1577.06 582.952 1573.55 582.818C1569.82 578.51 1571.41 547.848 1571.46 540.146Z"/><path fill="#FEFEFE" transform="matrix(0.508889 0 0 0.50882 -62.5935 -44.2673)" d="M1061.04 569.706C1060.99 564.862 1060.58 544.42 1061.68 541.128L1063.9 540.482L1066.09 541.824C1069.61 548.194 1068.33 573.538 1068.54 583.232L1063.51 582.808C1057.43 579.62 1047.13 561.82 1042.89 555.42C1042.94 563.04 1044.79 574.924 1041.58 581.228C1038.77 582.904 1040.02 582.652 1036.89 582.284C1034.36 574.656 1035.69 549.37 1035.88 540.422C1037.51 540.526 1039.28 540.92 1040.89 541.228C1047.42 545.794 1056.56 562.318 1061.04 569.706Z"/><path fill="#FEFEFE" transform="matrix(0.508889 0 0 0.50882 -62.5935 -44.2673)" d="M1786 541.14C1792.8 540.804 1796.5 540.526 1802.36 544.02C1803.86 547.064 1803.56 545.706 1803.26 549.306C1800.5 552.17 1794.91 550.132 1790.04 550.304C1762.55 551.27 1787.09 588.442 1799.42 570.908C1797.53 564.238 1791.96 566.692 1789.06 562.008L1789.87 559.21C1795.97 559.552 1799.91 559.47 1805.99 559.188C1806.29 565.774 1806.38 572.37 1806.24 578.962C1798.25 581.934 1791.45 583.798 1783.11 580.65C1777.73 578.68 1773.42 574.552 1771.21 569.264C1765.77 556.208 1774.21 545.954 1786 541.14Z"/><path fill="#FEFEFE" transform="matrix(0.508889 0 0 0.50882 -62.5935 -44.2673)" d="M1660.13 541.234C1667.21 540.886 1675.31 539.606 1679.28 547.356C1676.45 554.04 1663.84 547.256 1657.54 551.538C1643.42 561.136 1662.05 581.356 1673.05 573.606C1674.12 570.852 1674.12 570.506 1673.43 567.626C1670.47 564.862 1668.51 565.27 1664.11 563.94L1663.28 562.082L1664.25 559.992C1666.81 559.774 1669.37 559.6 1671.93 559.468C1676.28 559.282 1676.98 559.728 1679.84 562.374C1681.68 566.392 1681.04 573.52 1680.96 578.206C1674.05 582.184 1666.17 583.924 1658.46 581.202C1653.2 579.364 1648.88 575.51 1646.45 570.49C1644.14 565.636 1643.89 560.056 1645.76 555.016C1648.49 547.602 1653.35 544.402 1660.13 541.234Z"/><path fill="#FEFEFE" transform="matrix(0.508889 0 0 0.50882 -62.5935 -44.2673)" d="M659.086 540.69C665.734 540.668 673.862 539.978 679.428 543.58C695.962 554.278 684.696 565.554 670.278 567.968L667.738 568.404C665.982 572.79 668.864 575.374 667.764 581.328C665.438 583.864 666.582 583.186 663.48 584.142C656.056 582.042 659.022 548.74 659.086 540.69ZM676.192 559.638C678.446 555.436 678.596 556.566 678.37 552.332C675.824 548.066 671.896 548.116 667.418 547.78C667.364 551.398 666.698 558.146 668.606 560.812C672.016 561.708 672.212 560.92 676.192 559.638Z"/><path fill="#FEFEFE" transform="matrix(0.508889 0 0 0.50882 -62.5935 -44.2673)" d="M1280.76 539.948C1282.31 540.238 1285.51 541.1 1286.41 542.192C1291.19 548.038 1301.36 575.256 1300.95 581.776C1298.49 583.572 1299.64 583.224 1296.61 583.098C1293.69 580.656 1293.22 576.448 1290.72 572.392L1288.25 572.032C1266.71 571.674 1279.42 576.694 1271.3 582.79C1268.59 583.328 1268.3 583.546 1265.83 582.606C1265.52 579.864 1278.66 544.872 1280.76 539.948Z"/><path fill="#FEFEFE" transform="matrix(0.508889 0 0 0.50882 -62.5935 -44.2673)" d="M837.68 540.598C845.058 541.192 854.77 539.386 860.776 542.276C862.672 545.01 862.322 543.698 861.902 547.266C857.71 549.772 845.62 543.964 844.688 554.674C848.778 562.196 857.834 553.366 861.54 560.838L860.32 564.332C857.076 566.284 852.812 564.654 846.996 565.346L845.9 566.976L846.04 575.088C848.132 577.08 860.848 573.592 862.726 580.69C859.746 583.58 842.502 582.726 837.458 582.716L837.68 540.598Z"/><path fill="#FEFEFE" transform="matrix(0.508889 0 0 0.50882 -62.5935 -44.2673)" d="M1161.9 540.628C1168.26 540.982 1186.05 538.45 1187.15 545.098C1182.99 551.69 1178.54 545.828 1170.74 548.532C1169.52 550.834 1170.14 554.628 1170.29 557.45C1173.31 559.634 1181.09 556.28 1186.08 559.096C1186.53 561.936 1186.63 560.76 1185.13 563.758C1180.99 565.998 1176.22 564.652 1169.97 565.19C1169.98 569.09 1170.03 571.584 1170.5 575.442C1175 577.884 1180.47 574.504 1186 576.542C1187.77 579.134 1187.33 577.924 1186.81 582.014C1184.27 583.648 1166.55 582.932 1161.95 582.896L1161.9 540.628Z"/><path fill="#FEFEFE" transform="matrix(0.508889 0 0 0.50882 -62.5935 -44.2673)" d="M1085 540.692C1090.24 540.914 1105.67 540.292 1108.58 541.756C1109.09 544.688 1109.29 545.224 1107.9 547.798C1102.36 550.866 1098.57 544.12 1093.47 550.368C1092.94 553.54 1092.72 554.37 1093.24 557.678C1097.76 559.472 1101.48 556.384 1106.32 557.962C1108.26 560.83 1107.68 560.118 1107.81 564.016C1105.04 565.606 1097.13 565.066 1093.03 565.224C1092.96 569.296 1092.98 571.544 1093.46 575.57C1096.36 577.026 1103.12 575.868 1107.68 576.054C1110.08 578.196 1109.55 577.122 1109.91 580.016L1108.54 581.602C1104.53 583.802 1090.38 582.932 1084.95 582.864L1085 540.692Z"/><path fill="#FEFEFE" transform="matrix(0.508889 0 0 0.50882 -62.5935 -44.2673)" d="M1375.41 540.882C1379.87 540.91 1395.26 540.418 1398.54 541.822C1399.14 544.41 1399.17 544.728 1398.3 547.232C1392.75 550.124 1386.2 545.914 1382.81 549.984C1383.24 564.386 1391.48 554.08 1397.6 558.81C1398.21 561.604 1398.55 562.108 1397.63 564.672C1395.2 565.912 1388.71 564.974 1384.2 565.448L1383 567.026C1383.04 569.806 1383.23 572.616 1383.39 575.394C1386.15 576.796 1393.98 575.454 1398.87 576.23C1400.32 579.164 1400.08 577.832 1399.4 581.462C1396.27 583.688 1381.21 582.578 1376.03 582.516C1375.05 571.31 1375.6 552.87 1375.41 540.882Z"/><path fill="#FEFEFE" transform="matrix(0.508889 0 0 0.50882 -62.5935 -44.2673)" d="M1508.15 540.918C1515.56 541.122 1530.93 538.436 1533.85 545.456C1531.15 551.504 1522.01 545.756 1516.98 549.086C1515.87 551.29 1516.36 553.426 1516.57 555.978C1520.58 560.16 1529.4 555.52 1531.46 561.952C1527.25 567.81 1520.69 563.36 1516.3 565.948L1516.82 568.252C1515.42 584.608 1523.96 572.788 1531.86 576.33C1533.33 579.134 1533.02 577.872 1532.77 581.31C1529.61 583.222 1513.8 582.59 1508.84 582.608C1508.02 569.314 1509.12 555.238 1508.15 540.918Z"/><path fill="#FEFEFE" transform="matrix(0.508889 0 0 0.50882 -62.5935 -44.2673)" d="M882.712 541.072C888.622 540.754 895.028 540.23 899.544 544.134C900.058 546.608 899.902 546.928 898.882 549.262C893.422 551.848 887.898 545.174 883.098 550.2C882.276 560.38 919.382 566.076 892.682 582.498C884.468 582.796 877.764 584.25 873.934 576.058L874.838 574.66C881.718 574.364 887.208 577.742 892.412 573.078C893.156 563.654 859.138 558.786 882.712 541.072Z"/><path fill="#FEFEFE" transform="matrix(0.508889 0 0 0.50882 -62.5935 -44.2673)" d="M923.77 541.116C930.902 540.76 938.89 539.724 940.624 548.248C935.99 551.27 925.672 545.646 922.71 551.45C924.074 560.016 959.506 568.72 931.748 582.442C930.086 582.57 928.422 582.622 926.756 582.598C921.804 582.57 918.792 582.452 915.248 578.868C914.478 576.146 914.484 575.816 915.28 573.102C921.704 571.316 926.044 580.46 933 573.47C933.04 564.716 898.466 556.61 923.77 541.116Z"/><path fill="#FEFEFE" transform="matrix(0.508889 0 0 0.50882 -62.5935 -44.2673)" d="M797.978 540.802C805.188 541.014 815.686 540.01 822.378 541.474C823.086 544.51 823.03 543.262 821.974 546.66C818.592 549.51 811.132 548.258 806.39 547.978L806.01 559.116C810.568 559.07 815.104 557.774 819.242 559.26C821.704 562.338 820.938 561.848 821.214 566.548L806.02 565.916C806.234 571.136 807.322 578.842 804.552 582.822C800.718 582.764 800.458 583.48 798.388 581.356C797.008 573.158 797.848 550.222 797.978 540.802Z"/><path fill="#FEFEFE" transform="matrix(0.508889 0 0 0.50882 -62.5935 -44.2673)" d="M1123.93 540.524C1127.11 540.52 1129.52 540.32 1132.54 541.356C1133.56 548.512 1133.08 567.848 1133.05 576.088C1137.77 576.126 1141.87 575.016 1146.44 576.338C1149.28 578.75 1148.44 578.3 1149.23 582.872C1141.14 582.53 1132.52 582.816 1124.38 582.944C1124.41 568.802 1124.26 554.662 1123.93 540.524Z"/><path fill="#FEFEFE" transform="matrix(0.508889 0 0 0.50882 -62.5935 -44.2673)" d="M955.8 540.752C959.28 540.79 961.062 540.212 963.672 541.798C964.778 548.726 964.512 574.004 964.658 582.612C961.786 582.546 960.19 582.316 957.42 581.888C954.964 578.464 955.788 547.372 955.8 540.752Z"/><path fill="#FEFEFE" transform="matrix(0.508889 0 0 0.50882 -62.5935 -44.2673)" d="M1547.36 540.9C1550.15 540.848 1552.6 540.55 1555.08 541.868C1556.4 546.9 1556.16 576.404 1556.19 583.05C1552.25 582.804 1550.88 583.278 1548.26 581.206C1547.16 573.868 1547.71 550.436 1547.36 540.9Z"/><path fill="#FEFEFE" transform="matrix(0.508889 0 0 0.50882 -62.5935 -44.2673)" d="M1620.87 540.692C1623.91 540.65 1625.43 540.466 1628.36 541.504C1629.69 545.898 1629.17 575.56 1629.15 581.866C1626.21 582.43 1624.27 583.136 1621.52 582.086C1620.36 574.784 1620.87 549.392 1620.87 540.692Z"/><path fill="#FEFEFE" transform="matrix(0.508889 0 0 0.50882 -62.5935 -44.2673)" d="M1697 540.582C1700.05 540.592 1701.46 540.402 1704.28 541.744C1705.57 547.334 1704.99 575.012 1704.96 582.416C1700.66 582.598 1700.56 583.302 1697.46 581.448C1696.28 574.926 1696.95 548.646 1697 540.582Z"/></g></svg>