<?xml version="1.0" encoding="utf-8" ?><svg xmlns="http://www.w3.org/2000/svg" xmlns:xlink="http://www.w3.org/1999/xlink" width="1024" height="512" viewBox="0 0 1024 512"><path fill="#FEFEFE" d="M203.324 123.298C212.301 121.875 227.614 123.51 236.265 126.059C262.569 133.809 279.418 147.562 292.713 170.953C277.927 185.492 263.501 200.393 249.449 215.643C247.4 207.515 245.588 203.716 240.826 196.769C246.705 189.707 257.463 179.138 264.053 172.234C212.463 118.441 128.631 164.901 150.767 234.317C155.363 248.244 162.332 256.484 172.607 266.316L181.47 256.594C188.056 263.899 193.235 266.711 202.66 268.964C191.773 279.154 177.268 296.18 166.685 305.168C159.715 305.855 141.745 305.345 134.04 305.338C140.75 298.324 147.59 291.436 154.557 284.678C135.672 268.433 124.121 250.46 121.455 225.354C115.827 172.367 150.929 129.065 203.324 123.298Z"/><path fill="#1BA9EA" d="M211.654 163.299C213.343 164.971 219.806 174.904 221.471 177.618C230.633 192.555 244.579 210.457 246.133 228.283C246.882 236.874 244.221 245.444 238.487 251.742C230.232 260.808 223.406 263.023 211.688 263.846C194.07 262.974 180.533 251.954 177.851 234.194C177.156 229.605 177.413 224.923 178.605 220.438C182.665 204.716 201.488 177.068 211.654 163.299Z"/><path fill="#50C5F4" d="M189.8 217.405C190.697 218.891 190.265 222.561 190.548 224.499C193.043 241.588 201.408 247.532 217.378 250.433L211.103 253.356C206.54 254.86 201.915 254.175 197.675 252.011C192.42 249.331 188.466 244.649 186.704 239.019C184.407 231.587 186.228 224.049 189.8 217.405Z"/><path fill="#FEFEFE" d="M296.279 178.381C296.345 178.452 296.412 178.524 296.478 178.595C303.541 192.855 304.56 210.96 302.978 226.546C300.629 249.69 287.767 269.214 269.935 283.459C277.089 290.587 284.08 297.876 290.905 305.319C281.408 304.938 268.935 305.3 259.176 305.331L251.21 297.024C242.199 288.164 232.749 277.782 223.979 268.519C232.79 265.366 236.273 263.144 242.699 256.532L252.068 266.175C271.887 246.507 281.748 228.003 275.295 199.524C281.862 192.586 290.266 185.575 296.279 178.381Z"/><path fill="#FEFEFE" d="M751.972 188.017C775.377 185.622 787.052 212.398 773.455 229.889C765.215 240.49 750.778 241.423 740.575 232.804L740.573 238.938L740.622 255.525L727.459 255.503L727.392 189.433C731.445 189.374 735.431 189.271 739.482 189.519C740.931 191.081 739.372 191.697 740.459 193.267C743.179 192.677 745.768 189.594 751.972 188.017ZM756.012 226.797C760.279 224.776 763.159 222.745 764.782 217.982C766.014 214.306 765.718 210.29 763.961 206.835C762.372 203.803 759.64 201.53 756.37 200.519C754.356 199.891 751.818 199.95 749.706 200.069C733.619 205.489 739.153 229.765 756.012 226.797Z"/><path fill="#FEFEFE" d="M448.171 188.08C456.993 187.133 461.281 188.255 466.839 195.17C472.435 189.65 474.823 188.58 482.579 188.343C499.599 187.821 502.231 201.017 501.936 214.781C501.779 222.116 501.987 230.28 501.995 237.681C497.416 237.589 492.723 237.628 488.134 237.613C488.181 230.305 489.54 204.786 485.592 202.22C467.023 190.15 471.01 224.342 471.04 227.407L471.082 237.673C466.519 237.518 461.581 237.612 456.988 237.613C456.935 230.264 459.014 206.493 454.312 201.683C452.915 200.255 451.049 199.612 449.072 199.641C446.774 199.674 444.599 200.441 443.011 202.145C438.035 207.484 440.053 229.882 440.303 237.604C435.691 237.548 431.004 237.59 426.385 237.588C426.662 221.534 426.5 205.475 425.899 189.43C428.608 189.475 436.709 188.719 438.274 189.964L438.478 193.172L438.906 193.431C443.2 190.655 443.385 189.842 448.171 188.08Z"/><path fill="#FEFEFE" d="M347.662 188.682C354.47 188.064 361.293 188.567 367.362 191.982C372.854 195.044 376.863 200.209 378.467 206.289C382.673 222.336 373.449 234.323 358.149 238.158C323.277 242.921 312.385 196.754 347.662 188.682ZM354.329 226.702C362.64 223.916 367.677 217.065 364.645 208.213C363.579 205.015 361.238 202.4 358.177 200.989C356.332 200.14 353.841 199.655 351.81 199.637C335.264 203.123 336.289 226.426 354.329 226.702Z"/><path fill="#FEFEFE" d="M529.749 188.632C536.711 188.263 542.297 188.38 548.632 192.104C554.258 195.437 558.286 200.917 559.787 207.281C563.489 222.643 553.808 234.454 539.341 237.997C503.243 242.535 495.198 195.567 529.749 188.632ZM534.931 226.731C543.158 225.013 548.035 218.359 546.234 209.971C545.527 206.521 543.457 203.503 540.493 201.6C538.552 200.373 535.982 199.806 533.71 199.65C525.325 200.961 520.084 207.007 521.59 215.679C522.19 219.203 524.2 222.33 527.158 224.338C529.588 226.016 532.041 226.535 534.931 226.731Z"/><path fill="#1BA9EA" d="M657.318 168.497L672.961 168.529C678.423 175.076 684.365 185.397 690.162 192.868C695.421 184.721 700.803 176.655 706.308 168.672C711.893 168.733 717.255 168.792 722.844 168.614C716.29 179.13 705.994 192.982 698.742 203.431C704.236 212.548 718.001 229.797 721.935 238.055C717.401 238.362 710.989 238.203 706.316 238.229C700.767 230.109 695.266 221.956 689.812 213.772L673.099 238.124C667.409 238.109 661.909 238.081 656.217 238.323C663.941 226.655 673.136 215.077 681.149 203.35C674.679 192.743 664.559 179.34 657.318 168.497Z"/><path fill="#FEFEFE" d="M804.356 188.533C826.274 186.5 832.827 196.886 833.271 216.941C821.529 217.012 809.786 216.967 798.045 216.807C802.186 230.889 814.29 228.606 824.521 222.226C827.026 225.638 828.253 227.515 830.294 231.217C827.18 234.071 823.481 236.211 819.455 237.487C812.479 239.666 803.747 239.116 797.308 235.606C791.655 232.518 787.47 227.299 785.684 221.111C781.322 205.925 789.207 192.88 804.356 188.533ZM797.847 207.962L810.845 207.987L821.213 207.92C818.058 200.784 816.624 199.145 808.466 199.202C802.162 200.065 800.307 202.175 797.847 207.962Z"/><path fill="#FEFEFE" d="M626.72 188.604C648.222 186.213 654.827 197.526 655.321 216.951C643.661 216.779 631.77 216.916 620.063 216.818C623.77 230.32 635.771 229.277 645.438 222.45C648.046 225.138 649.885 227.889 651.755 231.101C643.533 239.595 629.142 241.037 619.057 235.136C613.574 231.917 609.623 226.622 608.096 220.45C604.229 205.182 611.136 192.464 626.72 188.604ZM619.869 207.858L635.125 207.899L643 207.849C639.577 199.719 637.456 198.618 628.492 199.131C622.971 201.398 622.26 202.544 619.869 207.858Z"/><path fill="#FEFEFE" d="M402.634 187.707C408.771 187.858 411.822 188.731 417.55 190.775C417.537 194.329 417.216 198.592 417.036 202.194C412.749 200.221 398.278 194.016 396.629 201.744C398.053 208.455 421.231 208.791 419.992 222.266C418.726 236.045 409.879 238.766 397.799 238.587C391.752 237.938 388.727 237.228 383.206 234.863L385.489 223.231C390.189 225.618 404.791 231.985 407.072 224.041C405.658 217.463 383.925 217.015 383.95 204.974C383.976 192.698 391.422 188.37 402.634 187.707Z"/><path fill="#FEFEFE" d="M579.193 188.115C586.59 187.122 592.392 188.223 599.19 190.945C599.221 194.035 598.724 198.864 598.485 202.069C593.598 199.903 580.462 193.993 577.989 201.914C580.146 208.756 600.285 208.551 601.431 220.341C602.55 231.861 596.279 236.607 585.878 238.525C578.24 238.833 572.042 238.164 565.117 234.851C566.086 231.504 566.528 227.074 566.988 223.53C572.057 226.024 583.236 231.038 588.347 225.273C588.914 224.633 588.564 223.969 588.38 223.197C585.199 219.235 578.619 218.409 574.299 215.879C559.379 207.143 563.81 192.594 579.193 188.115Z"/><path fill="#FEFEFE" d="M882.607 175.802L896.164 175.752L896.028 189.446L908.048 189.392L908.043 199.849C904.392 200.068 899.549 199.909 895.806 199.887C895.98 206.98 895.161 214.685 895.953 221.602C896.75 228.563 903.246 227.652 907.954 226.613L907.921 233.625C908.231 238.803 902.691 238.394 899.039 238.586C886.058 238.882 882.217 232.671 882.704 220.61C882.969 214.055 882.917 206.396 883.023 199.801L875.106 200.004C875.385 196.746 875.305 192.715 875.32 189.381L882.49 189.426L882.607 175.802Z"/><path fill="#FEFEFE" d="M865.56 188.094L870.25 188.642L868.871 199.942C864.56 200.007 860.915 200.575 857.705 203.76C853.077 208.354 853.946 214.899 854.032 220.821C854.114 226.451 854.163 232.087 854.213 237.72C849.822 237.558 844.909 237.668 840.478 237.672L840.496 189.414C844.759 189.514 849.121 188.411 852.326 190.117C853.492 192.045 853.132 192.483 853.225 194.95C857.687 190.248 859.204 189.318 865.56 188.094Z"/><path fill="#FEFEFE" d="M170.561 182.888C174.448 186.605 180.112 193.169 184.162 197.391C178.278 204.689 177.262 207.929 174.055 216.674C172.295 216.471 162.371 205.57 160.7 203.705C163.387 194.641 165.412 190.86 170.561 182.888Z"/><path fill="#FEFEFE" d="M378.89 270.775C382.12 269.954 385.547 270.72 388.12 272.838C390.693 274.955 392.103 278.172 391.918 281.499C391.658 286.174 388.323 290.108 383.753 291.13C378.171 292.379 372.62 288.913 371.291 283.349C369.962 277.785 373.346 272.185 378.89 270.775ZM383.738 287.643C389.932 282.043 389.208 274.479 380.195 274.464L379.978 274.465C372.288 279.11 374.519 287.519 383.738 287.643Z"/><path fill="#FEFEFE" d="M498.004 270.685C503.73 269.729 509.138 273.625 510.045 279.36C510.952 285.094 507.011 290.469 501.269 291.327C495.595 292.176 490.298 288.291 489.401 282.625C488.505 276.958 492.345 271.629 498.004 270.685ZM501.343 287.668C507.499 283.075 507.826 275.546 499.441 274.586C499.156 274.553 498.87 274.524 498.583 274.498C490.548 278.217 492.937 287.901 501.343 287.668Z"/><path fill="#FEFEFE" d="M669.536 284.944C670.118 283.432 670.719 281.928 671.339 280.431C672.485 277.672 674.85 270.913 677.167 269.957C680.129 272.158 680.447 288.392 679.47 291.4C677.497 291.635 678.055 291.86 676.582 290.952C675.692 289.348 675.938 285.636 675.928 283.625C675.977 282.11 676.126 280.902 675.547 279.486C674.057 280.067 670.77 289.501 669.394 292.301C666.622 288.555 664.106 281.893 662.246 277.419C662.498 281.976 663.064 287.103 661.583 291.405L660.89 291.703C658.264 288.77 659.249 274.557 659.872 270.442C660.699 270.439 661.653 270.503 662.492 270.537C664.871 272.161 667.962 281.528 669.536 284.944Z"/><path fill="#FEFEFE" d="M732.494 270.442C734.816 270.42 738.038 270.214 740.26 270.743C747.303 272.42 748.926 278.678 742.15 282.306C743.543 284.418 746.688 288.419 746.453 290.747C745.179 291.71 745.052 291.345 743.025 291.275C740.845 287.555 739.359 285.114 736.797 281.67C736.827 284.385 737.1 288.825 735.9 291.131C734.279 291.582 734.879 291.651 733.548 291.07C731.621 288.121 732.451 274.887 732.494 270.442ZM741.451 278.88C742.025 277.385 742.406 276.786 741.896 275.233C740.051 273.84 738.926 273.96 736.515 273.976C736.566 275.769 736.404 277.822 737.41 279.231C739.156 279.851 739.404 279.696 741.451 278.88Z"/><path fill="#FEFEFE" d="M611.363 270.296C615.46 270.31 621.953 270.009 624.648 274.219C626.757 277.513 623.38 280.799 620.614 282.477C622.1 284.561 625.287 288.289 625.096 290.654C623.946 291.811 623.947 291.425 621.779 291.492C619.808 288.106 617.622 284.741 615.52 281.425C615.743 284.357 616.584 289.173 615.032 291.435C613.251 291.464 613.075 291.76 611.739 290.942C611.103 286.965 611.407 275.218 611.363 270.296ZM620.001 279.05C620.662 277.65 620.961 277.252 620.589 275.7C619.074 274.033 617.88 274.014 615.584 273.842C615.558 275.538 615.242 278.389 616.256 279.566C617.608 280.019 618.655 279.504 620.001 279.05Z"/><path fill="#FEFEFE" d="M350.857 270.44C355.058 270.371 361.069 269.914 363.937 274.219C366.263 277.712 362.703 280.952 359.762 282.656C361.321 284.651 364.841 288.46 364.605 290.825C363.451 291.717 363.039 291.35 361.225 291.262C359.042 287.513 357.569 285.097 354.998 281.627C355.101 284.161 355.709 288.728 354.564 290.643C352.896 291.533 353.488 291.303 351.459 291.176C350.133 288.281 350.78 274.585 350.857 270.44ZM359.606 278.838C360.193 276.725 360.251 277.491 359.745 275.4C358.384 274.037 356.923 273.952 355.004 273.835C354.972 275.575 354.663 277.965 355.623 279.248C357.083 279.783 358.063 279.29 359.606 278.838Z"/><path fill="#FEFEFE" d="M707.323 270.411C708.329 270.424 709.216 270.538 710.209 270.649C713.783 273.018 717.867 280.768 720.172 284.68C720.189 280.792 719.13 274.343 720.718 271.261C722.199 270.302 721.496 270.497 723.456 270.688C724.711 273.579 724.064 287.846 723.704 291.474L721.257 291.318C718.316 289.728 713.046 280.643 710.965 277.499C711.164 281.305 711.588 286.8 710.927 290.594C710.867 290.941 710.246 291.151 709.817 291.388L708.678 290.907C706.691 287.822 707.352 275.017 707.323 270.411Z"/><path fill="#FEFEFE" d="M860.417 270.271L862.973 270.395C865.897 272.056 870.73 281.086 873.601 284.823C873.384 281.007 872.282 274.531 873.612 271.278C874.967 270.162 874.283 270.415 876.287 270.495C877.622 272.216 877.051 287.778 877.04 291.279L874.676 291.204C871.466 289.744 866.333 281.104 863.999 277.641C864.134 279.92 864.498 289.574 863.87 291.344C862.27 291.517 862.868 291.678 861.608 290.793C859.729 287.51 860.443 275.116 860.417 270.271Z"/><path fill="#FEFEFE" d="M785.731 270.073C788.787 270.614 789.341 271.128 791.163 273.6C793.992 277.439 796.319 281.853 798.842 285.914C798.593 280.774 798.553 275.466 798.449 270.309L802.241 270.229L802.332 290.384L802.054 291.046C797.939 292.93 791.115 280.536 788.925 277.226C789.258 279.485 790.044 288.823 789.266 290.656C787.868 291.681 788.529 291.476 786.777 291.409C784.912 289.255 785.707 273.924 785.731 270.073Z"/><path fill="#FEFEFE" d="M530.521 284.853C530.497 282.431 530.29 272.21 530.84 270.564L531.948 270.241L533.047 270.912C534.804 274.097 534.166 286.769 534.269 291.616L531.753 291.404C528.713 289.81 523.564 280.91 521.444 277.71C521.472 281.52 522.395 287.462 520.791 290.614C519.386 291.452 520.01 291.326 518.447 291.142C517.18 287.328 517.846 274.685 517.942 270.211C518.756 270.263 519.638 270.46 520.445 270.614C523.71 272.897 528.281 281.159 530.521 284.853Z"/><path fill="#FEFEFE" d="M893 270.57C896.401 270.402 898.249 270.263 901.181 272.01C901.929 273.532 901.78 272.853 901.628 274.653C900.252 276.085 897.453 275.066 895.02 275.152C881.273 275.635 893.547 294.221 899.712 285.454C898.766 282.119 895.981 283.346 894.528 281.004L894.933 279.605C897.985 279.776 899.954 279.735 902.995 279.594C903.147 282.887 903.189 286.185 903.121 289.481C899.123 290.967 895.726 291.899 891.554 290.325C888.864 289.34 886.708 287.276 885.606 284.632C882.885 278.104 887.104 272.977 893 270.57Z"/><path fill="#FEFEFE" d="M830.067 270.617C833.607 270.443 837.657 269.803 839.642 273.678C838.227 277.02 831.92 273.628 828.769 275.769C821.708 280.568 831.025 290.678 836.527 286.803C837.062 285.426 837.059 285.253 836.715 283.813C835.235 282.431 834.256 282.635 832.056 281.97L831.64 281.041L832.124 279.996C833.403 279.887 834.683 279.8 835.965 279.734C838.138 279.641 838.49 279.864 839.918 281.187C840.842 283.196 840.519 286.76 840.478 289.103C837.024 291.092 833.086 291.962 829.231 290.601C826.598 289.682 824.438 287.755 823.223 285.245C822.07 282.818 821.946 280.028 822.88 277.508C824.246 273.801 826.675 272.201 830.067 270.617Z"/><path fill="#FEFEFE" d="M329.543 270.345C332.867 270.334 336.931 269.989 339.714 271.79C347.981 277.139 342.348 282.777 335.139 283.984L333.869 284.202C332.991 286.395 334.432 287.687 333.882 290.664C332.719 291.932 333.291 291.593 331.74 292.071C328.028 291.021 329.511 274.37 329.543 270.345ZM338.096 279.819C339.223 277.718 339.298 278.283 339.185 276.166C337.912 274.033 335.948 274.058 333.709 273.89C333.682 275.699 333.349 279.073 334.303 280.406C336.008 280.854 336.106 280.46 338.096 279.819Z"/><path fill="#FEFEFE" d="M640.382 269.974C641.156 270.119 642.756 270.55 643.203 271.096C645.594 274.019 650.682 287.628 650.477 290.888C649.243 291.786 649.821 291.612 648.303 291.549C646.846 290.328 646.608 288.224 645.358 286.196L644.125 286.016C633.356 285.837 639.71 288.347 635.649 291.395C634.296 291.664 634.149 291.773 632.916 291.303C632.759 289.932 639.329 272.436 640.382 269.974Z"/><path fill="#FEFEFE" d="M418.84 270.299C422.529 270.596 427.385 269.693 430.388 271.138C431.336 272.505 431.161 271.849 430.951 273.633C428.855 274.886 422.81 271.982 422.344 277.337C424.389 281.098 428.917 276.683 430.77 280.419L430.16 282.166C428.538 283.142 426.406 282.327 423.498 282.673L422.95 283.488L423.02 287.544C424.066 288.54 430.424 286.796 431.363 290.345C429.873 291.79 421.251 291.363 418.729 291.358L418.84 270.299Z"/><path fill="#FEFEFE" d="M580.952 270.314C584.128 270.491 593.026 269.225 593.576 272.549C591.497 275.845 589.268 272.914 585.372 274.266C584.762 275.417 585.07 277.314 585.147 278.725C586.656 279.817 590.544 278.14 593.042 279.548C593.265 280.968 593.316 280.38 592.566 281.879C590.493 282.999 588.109 282.326 584.983 282.595C584.99 284.545 585.017 285.792 585.25 287.721C587.5 288.942 590.236 287.252 592.999 288.271C593.885 289.567 593.667 288.962 593.404 291.007C592.137 291.824 583.277 291.466 580.974 291.448L580.952 270.314Z"/><path fill="#FEFEFE" d="M542.499 270.346C545.119 270.457 552.836 270.146 554.292 270.878C554.545 272.344 554.643 272.612 553.948 273.899C551.18 275.433 549.287 272.06 546.733 275.184C546.469 276.77 546.358 277.185 546.621 278.839C548.882 279.736 550.74 278.192 553.161 278.981C554.128 280.415 553.839 280.059 553.904 282.008C552.519 282.803 548.566 282.533 546.513 282.612C546.481 284.648 546.488 285.772 546.728 287.785C548.181 288.513 551.558 287.934 553.842 288.027C555.039 289.098 554.773 288.561 554.953 290.008L554.272 290.801C552.266 291.901 545.188 291.466 542.473 291.432L542.499 270.346Z"/><path fill="#FEFEFE" d="M687.705 270.441C689.935 270.455 697.631 270.209 699.271 270.911C699.57 272.205 699.585 272.364 699.152 273.616C696.377 275.062 693.098 272.957 691.407 274.992C691.622 282.193 695.74 277.04 698.799 279.405C699.106 280.802 699.273 281.054 698.815 282.336C697.601 282.956 694.354 282.487 692.102 282.724L691.498 283.513C691.521 284.903 691.617 286.308 691.694 287.697C693.077 288.398 696.988 287.727 699.436 288.115C700.158 289.582 700.038 288.916 699.701 290.731C698.134 291.844 690.606 291.289 688.017 291.258C687.524 285.655 687.799 276.435 687.705 270.441Z"/><path fill="#FEFEFE" d="M754.074 270.459C757.782 270.561 765.465 269.218 766.925 272.728C765.574 275.752 761.006 272.878 758.488 274.543C757.936 275.645 758.181 276.713 758.285 277.989C760.291 280.08 764.7 277.76 765.729 280.976C763.624 283.905 760.345 281.68 758.152 282.974L758.412 284.126C757.709 292.304 761.98 286.394 765.931 288.165C766.667 289.567 766.509 288.936 766.386 290.655C764.803 291.611 756.899 291.295 754.421 291.304C754.011 284.657 754.558 277.619 754.074 270.459Z"/><path fill="#FEFEFE" d="M441.356 270.536C444.311 270.377 447.514 270.115 449.772 272.067C450.029 273.304 449.951 273.464 449.441 274.631C446.711 275.924 443.949 272.587 441.549 275.1C441.138 280.19 459.691 283.038 446.341 291.249C442.234 291.398 438.882 292.125 436.967 288.029L437.419 287.33C440.859 287.182 443.604 288.871 446.206 286.539C446.578 281.827 429.569 279.393 441.356 270.536Z"/><path fill="#FEFEFE" d="M461.885 270.558C465.451 270.38 469.445 269.862 470.312 274.124C467.995 275.635 462.836 272.823 461.355 275.725C462.037 280.008 479.753 284.36 465.874 291.221C465.043 291.285 464.211 291.311 463.378 291.299C460.902 291.285 459.396 291.226 457.624 289.434C457.239 288.073 457.242 287.908 457.64 286.551C460.852 285.658 463.022 290.23 466.5 286.735C466.52 282.358 449.233 278.305 461.885 270.558Z"/><path fill="#FEFEFE" d="M398.989 270.401C402.594 270.507 407.843 270.005 411.189 270.737C411.543 272.255 411.515 271.631 410.987 273.33C409.296 274.755 405.566 274.129 403.195 273.989L403.005 279.558C405.284 279.535 407.552 278.887 409.621 279.63C410.852 281.169 410.469 280.924 410.607 283.274L403.01 282.958C403.117 285.568 403.661 289.421 402.276 291.411C400.359 291.382 400.229 291.74 399.194 290.678C398.504 286.579 398.924 275.111 398.989 270.401Z"/><path fill="#FEFEFE" d="M561.965 270.262C563.555 270.26 564.761 270.16 566.269 270.678C566.778 274.256 566.541 283.924 566.526 288.044C568.885 288.063 570.936 287.508 573.222 288.169C574.64 289.375 574.218 289.15 574.616 291.436C570.572 291.265 566.261 291.408 562.192 291.472C562.205 284.401 562.129 277.331 561.965 270.262Z"/><path fill="#FEFEFE" d="M477.9 270.376C479.64 270.395 480.531 270.106 481.836 270.899C482.389 274.363 482.256 287.002 482.329 291.306C480.893 291.273 480.095 291.158 478.71 290.944C477.482 289.232 477.894 273.686 477.9 270.376Z"/><path fill="#FEFEFE" d="M773.678 270.45C775.075 270.424 776.3 270.275 777.538 270.934C778.2 273.45 778.08 288.202 778.097 291.525C776.124 291.402 775.441 291.639 774.131 290.603C773.579 286.934 773.857 275.218 773.678 270.45Z"/><path fill="#FEFEFE" d="M810.437 270.346C811.953 270.325 812.715 270.233 814.178 270.752C814.847 272.949 814.586 287.78 814.577 290.933C813.103 291.215 812.133 291.568 810.76 291.043C810.181 287.392 810.435 274.696 810.437 270.346Z"/><path fill="#FEFEFE" d="M848.501 270.291C850.023 270.296 850.732 270.201 852.139 270.872C852.787 273.667 852.494 287.506 852.478 291.208C850.33 291.299 850.28 291.651 848.728 290.724C848.14 287.463 848.474 274.323 848.501 270.291Z"/><path d="M0 0L1024 0L1024 1.57376L411.308 2.04122L81.8458 2.12292C54.654 2.01559 27.0064 2.80922 0 2.42591L0 0Z"/></svg>
